%TF.GenerationSoftware,KiCad,Pcbnew,9.0.7*%
%TF.CreationDate,2026-09-25T08:11:08+02:00*%
%TF.ProjectId,esp32-c3-led,65737033-322d-4633-932d-6c65642e6b69,rev?*%
%TF.SameCoordinates,Original*%
%TF.FileFunction,Drillmap*%
%TF.FilePolarity,Positive*%
%FSLAX45Y45*%
G04 Gerber Fmt 4.5, Leading zero omitted, Abs format (unit mm)*
G04 Created by KiCad (PCBNEW 9.0.7) date 2026-09-25 08:11:08*
%MOMM*%
%LPD*%
G01*
G04 APERTURE LIST*
%ADD10C,0.050000*%
%ADD11C,0.200000*%
%ADD12C,0.100000*%
G04 APERTURE END LIST*
D10*
X12000000Y-4800000D02*
X14050000Y-4800000D01*
X14050000Y-8350000D01*
X12000000Y-8350000D01*
X12000000Y-4800000D01*
D11*
D12*
X12285000Y-5835000D02*
X12315000Y-5865000D01*
X12315000Y-5835000D02*
X12285000Y-5865000D01*
X12435000Y-7735000D02*
X12465000Y-7765000D01*
X12465000Y-7735000D02*
X12435000Y-7765000D01*
X12535000Y-7485000D02*
X12565000Y-7515000D01*
X12565000Y-7485000D02*
X12535000Y-7515000D01*
X12585000Y-6985000D02*
X12615000Y-7015000D01*
X12615000Y-6985000D02*
X12585000Y-7015000D01*
X12635000Y-6485000D02*
X12665000Y-6515000D01*
X12665000Y-6485000D02*
X12635000Y-6515000D01*
X12735000Y-6135000D02*
X12765000Y-6165000D01*
X12765000Y-6135000D02*
X12735000Y-6165000D01*
X12735000Y-7485000D02*
X12765000Y-7515000D01*
X12765000Y-7485000D02*
X12735000Y-7515000D01*
X12735000Y-7735000D02*
X12765000Y-7765000D01*
X12765000Y-7735000D02*
X12735000Y-7765000D01*
X12885000Y-6035000D02*
X12915000Y-6065000D01*
X12915000Y-6035000D02*
X12885000Y-6065000D01*
X13380000Y-5740000D02*
X13410000Y-5770000D01*
X13410000Y-5740000D02*
X13380000Y-5770000D01*
X13385000Y-5935000D02*
X13415000Y-5965000D01*
X13415000Y-5935000D02*
X13385000Y-5965000D01*
X13709000Y-5711000D02*
X13739000Y-5741000D01*
X13739000Y-5711000D02*
X13709000Y-5741000D01*
X13735000Y-5835000D02*
X13765000Y-5865000D01*
X13765000Y-5835000D02*
X13735000Y-5865000D01*
X13735000Y-7085000D02*
X13765000Y-7115000D01*
X13765000Y-7085000D02*
X13735000Y-7115000D01*
X13735000Y-7235000D02*
X13765000Y-7265000D01*
X13765000Y-7235000D02*
X13735000Y-7265000D01*
X12198000Y-7689500D02*
G75*
G02*
X12138000Y-7689500I-30000J0D01*
G01*
X12138000Y-7689500D02*
G75*
G02*
X12198000Y-7689500I30000J0D01*
G01*
X12198000Y-7744500D02*
X12198000Y-7634500D01*
X12138000Y-7634500D02*
G75*
G02*
X12198000Y-7634500I30000J0D01*
G01*
X12138000Y-7634500D02*
X12138000Y-7744500D01*
X12138000Y-7744500D02*
G75*
G03*
X12198000Y-7744500I30000J0D01*
G01*
X12198000Y-8107500D02*
G75*
G02*
X12138000Y-8107500I-30000J0D01*
G01*
X12138000Y-8107500D02*
G75*
G02*
X12198000Y-8107500I30000J0D01*
G01*
X12198000Y-8147500D02*
X12198000Y-8067500D01*
X12138000Y-8067500D02*
G75*
G02*
X12198000Y-8067500I30000J0D01*
G01*
X12138000Y-8067500D02*
X12138000Y-8147500D01*
X12138000Y-8147500D02*
G75*
G03*
X12198000Y-8147500I30000J0D01*
G01*
X13062000Y-7689500D02*
G75*
G02*
X13002000Y-7689500I-30000J0D01*
G01*
X13002000Y-7689500D02*
G75*
G02*
X13062000Y-7689500I30000J0D01*
G01*
X13062000Y-7744500D02*
X13062000Y-7634500D01*
X13002000Y-7634500D02*
G75*
G02*
X13062000Y-7634500I30000J0D01*
G01*
X13002000Y-7634500D02*
X13002000Y-7744500D01*
X13002000Y-7744500D02*
G75*
G03*
X13062000Y-7744500I30000J0D01*
G01*
X13062000Y-8107500D02*
G75*
G02*
X13002000Y-8107500I-30000J0D01*
G01*
X13002000Y-8107500D02*
G75*
G02*
X13062000Y-8107500I30000J0D01*
G01*
X13062000Y-8147500D02*
X13062000Y-8067500D01*
X13002000Y-8067500D02*
G75*
G02*
X13062000Y-8067500I30000J0D01*
G01*
X13002000Y-8067500D02*
X13002000Y-8147500D01*
X13002000Y-8147500D02*
G75*
G03*
X13062000Y-8147500I30000J0D01*
G01*
X13342000Y-8100000D02*
X13342000Y-8200000D01*
X13292000Y-8150000D02*
X13392000Y-8150000D01*
X13346000Y-7700000D02*
X13346000Y-7800000D01*
X13296000Y-7750000D02*
X13396000Y-7750000D01*
X13596000Y-8100000D02*
X13596000Y-8200000D01*
X13546000Y-8150000D02*
X13646000Y-8150000D01*
X13600000Y-7700000D02*
X13600000Y-7800000D01*
X13550000Y-7750000D02*
X13650000Y-7750000D01*
X13850000Y-8100000D02*
X13850000Y-8200000D01*
X13800000Y-8150000D02*
X13900000Y-8150000D01*
X13854000Y-7700000D02*
X13854000Y-7800000D01*
X13804000Y-7750000D02*
X13904000Y-7750000D01*
X12333981Y-7762481D02*
X12333981Y-7716519D01*
X12288019Y-7716519D01*
X12288019Y-7762481D01*
X12333981Y-7762481D01*
X12911981Y-7762481D02*
X12911981Y-7716519D01*
X12866019Y-7716519D01*
X12866019Y-7762481D01*
X12911981Y-7762481D01*
D11*
X12258277Y-8663984D02*
X12258277Y-8463984D01*
X12258277Y-8463984D02*
X12305896Y-8463984D01*
X12305896Y-8463984D02*
X12334467Y-8473508D01*
X12334467Y-8473508D02*
X12353515Y-8492555D01*
X12353515Y-8492555D02*
X12363039Y-8511603D01*
X12363039Y-8511603D02*
X12372562Y-8549698D01*
X12372562Y-8549698D02*
X12372562Y-8578270D01*
X12372562Y-8578270D02*
X12363039Y-8616365D01*
X12363039Y-8616365D02*
X12353515Y-8635412D01*
X12353515Y-8635412D02*
X12334467Y-8654460D01*
X12334467Y-8654460D02*
X12305896Y-8663984D01*
X12305896Y-8663984D02*
X12258277Y-8663984D01*
X12458277Y-8663984D02*
X12458277Y-8530650D01*
X12458277Y-8568746D02*
X12467801Y-8549698D01*
X12467801Y-8549698D02*
X12477324Y-8540174D01*
X12477324Y-8540174D02*
X12496372Y-8530650D01*
X12496372Y-8530650D02*
X12515420Y-8530650D01*
X12582086Y-8663984D02*
X12582086Y-8530650D01*
X12582086Y-8463984D02*
X12572562Y-8473508D01*
X12572562Y-8473508D02*
X12582086Y-8483031D01*
X12582086Y-8483031D02*
X12591610Y-8473508D01*
X12591610Y-8473508D02*
X12582086Y-8463984D01*
X12582086Y-8463984D02*
X12582086Y-8483031D01*
X12705896Y-8663984D02*
X12686848Y-8654460D01*
X12686848Y-8654460D02*
X12677324Y-8635412D01*
X12677324Y-8635412D02*
X12677324Y-8463984D01*
X12810658Y-8663984D02*
X12791610Y-8654460D01*
X12791610Y-8654460D02*
X12782086Y-8635412D01*
X12782086Y-8635412D02*
X12782086Y-8463984D01*
X13039229Y-8663984D02*
X13039229Y-8463984D01*
X13039229Y-8463984D02*
X13105896Y-8606841D01*
X13105896Y-8606841D02*
X13172562Y-8463984D01*
X13172562Y-8463984D02*
X13172562Y-8663984D01*
X13353515Y-8663984D02*
X13353515Y-8559222D01*
X13353515Y-8559222D02*
X13343991Y-8540174D01*
X13343991Y-8540174D02*
X13324943Y-8530650D01*
X13324943Y-8530650D02*
X13286848Y-8530650D01*
X13286848Y-8530650D02*
X13267801Y-8540174D01*
X13353515Y-8654460D02*
X13334467Y-8663984D01*
X13334467Y-8663984D02*
X13286848Y-8663984D01*
X13286848Y-8663984D02*
X13267801Y-8654460D01*
X13267801Y-8654460D02*
X13258277Y-8635412D01*
X13258277Y-8635412D02*
X13258277Y-8616365D01*
X13258277Y-8616365D02*
X13267801Y-8597317D01*
X13267801Y-8597317D02*
X13286848Y-8587793D01*
X13286848Y-8587793D02*
X13334467Y-8587793D01*
X13334467Y-8587793D02*
X13353515Y-8578270D01*
X13448753Y-8530650D02*
X13448753Y-8730650D01*
X13448753Y-8540174D02*
X13467801Y-8530650D01*
X13467801Y-8530650D02*
X13505896Y-8530650D01*
X13505896Y-8530650D02*
X13524943Y-8540174D01*
X13524943Y-8540174D02*
X13534467Y-8549698D01*
X13534467Y-8549698D02*
X13543991Y-8568746D01*
X13543991Y-8568746D02*
X13543991Y-8625889D01*
X13543991Y-8625889D02*
X13534467Y-8644936D01*
X13534467Y-8644936D02*
X13524943Y-8654460D01*
X13524943Y-8654460D02*
X13505896Y-8663984D01*
X13505896Y-8663984D02*
X13467801Y-8663984D01*
X13467801Y-8663984D02*
X13448753Y-8654460D01*
X13629705Y-8644936D02*
X13639229Y-8654460D01*
X13639229Y-8654460D02*
X13629705Y-8663984D01*
X13629705Y-8663984D02*
X13620182Y-8654460D01*
X13620182Y-8654460D02*
X13629705Y-8644936D01*
X13629705Y-8644936D02*
X13629705Y-8663984D01*
X13629705Y-8540174D02*
X13639229Y-8549698D01*
X13639229Y-8549698D02*
X13629705Y-8559222D01*
X13629705Y-8559222D02*
X13620182Y-8549698D01*
X13620182Y-8549698D02*
X13629705Y-8540174D01*
X13629705Y-8540174D02*
X13629705Y-8559222D01*
D12*
X11967500Y-8977500D02*
X11997500Y-9007500D01*
X11997500Y-8977500D02*
X11967500Y-9007500D01*
D11*
X12296372Y-8883984D02*
X12315420Y-8883984D01*
X12315420Y-8883984D02*
X12334467Y-8893508D01*
X12334467Y-8893508D02*
X12343991Y-8903031D01*
X12343991Y-8903031D02*
X12353515Y-8922079D01*
X12353515Y-8922079D02*
X12363039Y-8960174D01*
X12363039Y-8960174D02*
X12363039Y-9007793D01*
X12363039Y-9007793D02*
X12353515Y-9045889D01*
X12353515Y-9045889D02*
X12343991Y-9064936D01*
X12343991Y-9064936D02*
X12334467Y-9074460D01*
X12334467Y-9074460D02*
X12315420Y-9083984D01*
X12315420Y-9083984D02*
X12296372Y-9083984D01*
X12296372Y-9083984D02*
X12277324Y-9074460D01*
X12277324Y-9074460D02*
X12267801Y-9064936D01*
X12267801Y-9064936D02*
X12258277Y-9045889D01*
X12258277Y-9045889D02*
X12248753Y-9007793D01*
X12248753Y-9007793D02*
X12248753Y-8960174D01*
X12248753Y-8960174D02*
X12258277Y-8922079D01*
X12258277Y-8922079D02*
X12267801Y-8903031D01*
X12267801Y-8903031D02*
X12277324Y-8893508D01*
X12277324Y-8893508D02*
X12296372Y-8883984D01*
X12448753Y-9064936D02*
X12458277Y-9074460D01*
X12458277Y-9074460D02*
X12448753Y-9083984D01*
X12448753Y-9083984D02*
X12439229Y-9074460D01*
X12439229Y-9074460D02*
X12448753Y-9064936D01*
X12448753Y-9064936D02*
X12448753Y-9083984D01*
X12524943Y-8883984D02*
X12648753Y-8883984D01*
X12648753Y-8883984D02*
X12582086Y-8960174D01*
X12582086Y-8960174D02*
X12610658Y-8960174D01*
X12610658Y-8960174D02*
X12629705Y-8969698D01*
X12629705Y-8969698D02*
X12639229Y-8979222D01*
X12639229Y-8979222D02*
X12648753Y-8998270D01*
X12648753Y-8998270D02*
X12648753Y-9045889D01*
X12648753Y-9045889D02*
X12639229Y-9064936D01*
X12639229Y-9064936D02*
X12629705Y-9074460D01*
X12629705Y-9074460D02*
X12610658Y-9083984D01*
X12610658Y-9083984D02*
X12553515Y-9083984D01*
X12553515Y-9083984D02*
X12534467Y-9074460D01*
X12534467Y-9074460D02*
X12524943Y-9064936D01*
X12772562Y-8883984D02*
X12791610Y-8883984D01*
X12791610Y-8883984D02*
X12810658Y-8893508D01*
X12810658Y-8893508D02*
X12820182Y-8903031D01*
X12820182Y-8903031D02*
X12829705Y-8922079D01*
X12829705Y-8922079D02*
X12839229Y-8960174D01*
X12839229Y-8960174D02*
X12839229Y-9007793D01*
X12839229Y-9007793D02*
X12829705Y-9045889D01*
X12829705Y-9045889D02*
X12820182Y-9064936D01*
X12820182Y-9064936D02*
X12810658Y-9074460D01*
X12810658Y-9074460D02*
X12791610Y-9083984D01*
X12791610Y-9083984D02*
X12772562Y-9083984D01*
X12772562Y-9083984D02*
X12753515Y-9074460D01*
X12753515Y-9074460D02*
X12743991Y-9064936D01*
X12743991Y-9064936D02*
X12734467Y-9045889D01*
X12734467Y-9045889D02*
X12724943Y-9007793D01*
X12724943Y-9007793D02*
X12724943Y-8960174D01*
X12724943Y-8960174D02*
X12734467Y-8922079D01*
X12734467Y-8922079D02*
X12743991Y-8903031D01*
X12743991Y-8903031D02*
X12753515Y-8893508D01*
X12753515Y-8893508D02*
X12772562Y-8883984D01*
X12963039Y-8883984D02*
X12982086Y-8883984D01*
X12982086Y-8883984D02*
X13001134Y-8893508D01*
X13001134Y-8893508D02*
X13010658Y-8903031D01*
X13010658Y-8903031D02*
X13020182Y-8922079D01*
X13020182Y-8922079D02*
X13029705Y-8960174D01*
X13029705Y-8960174D02*
X13029705Y-9007793D01*
X13029705Y-9007793D02*
X13020182Y-9045889D01*
X13020182Y-9045889D02*
X13010658Y-9064936D01*
X13010658Y-9064936D02*
X13001134Y-9074460D01*
X13001134Y-9074460D02*
X12982086Y-9083984D01*
X12982086Y-9083984D02*
X12963039Y-9083984D01*
X12963039Y-9083984D02*
X12943991Y-9074460D01*
X12943991Y-9074460D02*
X12934467Y-9064936D01*
X12934467Y-9064936D02*
X12924943Y-9045889D01*
X12924943Y-9045889D02*
X12915420Y-9007793D01*
X12915420Y-9007793D02*
X12915420Y-8960174D01*
X12915420Y-8960174D02*
X12924943Y-8922079D01*
X12924943Y-8922079D02*
X12934467Y-8903031D01*
X12934467Y-8903031D02*
X12943991Y-8893508D01*
X12943991Y-8893508D02*
X12963039Y-8883984D01*
X13115420Y-9083984D02*
X13115420Y-8950650D01*
X13115420Y-8969698D02*
X13124943Y-8960174D01*
X13124943Y-8960174D02*
X13143991Y-8950650D01*
X13143991Y-8950650D02*
X13172563Y-8950650D01*
X13172563Y-8950650D02*
X13191610Y-8960174D01*
X13191610Y-8960174D02*
X13201134Y-8979222D01*
X13201134Y-8979222D02*
X13201134Y-9083984D01*
X13201134Y-8979222D02*
X13210658Y-8960174D01*
X13210658Y-8960174D02*
X13229705Y-8950650D01*
X13229705Y-8950650D02*
X13258277Y-8950650D01*
X13258277Y-8950650D02*
X13277324Y-8960174D01*
X13277324Y-8960174D02*
X13286848Y-8979222D01*
X13286848Y-8979222D02*
X13286848Y-9083984D01*
X13382086Y-9083984D02*
X13382086Y-8950650D01*
X13382086Y-8969698D02*
X13391610Y-8960174D01*
X13391610Y-8960174D02*
X13410658Y-8950650D01*
X13410658Y-8950650D02*
X13439229Y-8950650D01*
X13439229Y-8950650D02*
X13458277Y-8960174D01*
X13458277Y-8960174D02*
X13467801Y-8979222D01*
X13467801Y-8979222D02*
X13467801Y-9083984D01*
X13467801Y-8979222D02*
X13477324Y-8960174D01*
X13477324Y-8960174D02*
X13496372Y-8950650D01*
X13496372Y-8950650D02*
X13524943Y-8950650D01*
X13524943Y-8950650D02*
X13543991Y-8960174D01*
X13543991Y-8960174D02*
X13553515Y-8979222D01*
X13553515Y-8979222D02*
X13553515Y-9083984D01*
X13943991Y-8874460D02*
X13772563Y-9131603D01*
X14201134Y-8883984D02*
X14220182Y-8883984D01*
X14220182Y-8883984D02*
X14239229Y-8893508D01*
X14239229Y-8893508D02*
X14248753Y-8903031D01*
X14248753Y-8903031D02*
X14258277Y-8922079D01*
X14258277Y-8922079D02*
X14267801Y-8960174D01*
X14267801Y-8960174D02*
X14267801Y-9007793D01*
X14267801Y-9007793D02*
X14258277Y-9045889D01*
X14258277Y-9045889D02*
X14248753Y-9064936D01*
X14248753Y-9064936D02*
X14239229Y-9074460D01*
X14239229Y-9074460D02*
X14220182Y-9083984D01*
X14220182Y-9083984D02*
X14201134Y-9083984D01*
X14201134Y-9083984D02*
X14182086Y-9074460D01*
X14182086Y-9074460D02*
X14172563Y-9064936D01*
X14172563Y-9064936D02*
X14163039Y-9045889D01*
X14163039Y-9045889D02*
X14153515Y-9007793D01*
X14153515Y-9007793D02*
X14153515Y-8960174D01*
X14153515Y-8960174D02*
X14163039Y-8922079D01*
X14163039Y-8922079D02*
X14172563Y-8903031D01*
X14172563Y-8903031D02*
X14182086Y-8893508D01*
X14182086Y-8893508D02*
X14201134Y-8883984D01*
X14353515Y-9064936D02*
X14363039Y-9074460D01*
X14363039Y-9074460D02*
X14353515Y-9083984D01*
X14353515Y-9083984D02*
X14343991Y-9074460D01*
X14343991Y-9074460D02*
X14353515Y-9064936D01*
X14353515Y-9064936D02*
X14353515Y-9083984D01*
X14486848Y-8883984D02*
X14505896Y-8883984D01*
X14505896Y-8883984D02*
X14524944Y-8893508D01*
X14524944Y-8893508D02*
X14534467Y-8903031D01*
X14534467Y-8903031D02*
X14543991Y-8922079D01*
X14543991Y-8922079D02*
X14553515Y-8960174D01*
X14553515Y-8960174D02*
X14553515Y-9007793D01*
X14553515Y-9007793D02*
X14543991Y-9045889D01*
X14543991Y-9045889D02*
X14534467Y-9064936D01*
X14534467Y-9064936D02*
X14524944Y-9074460D01*
X14524944Y-9074460D02*
X14505896Y-9083984D01*
X14505896Y-9083984D02*
X14486848Y-9083984D01*
X14486848Y-9083984D02*
X14467801Y-9074460D01*
X14467801Y-9074460D02*
X14458277Y-9064936D01*
X14458277Y-9064936D02*
X14448753Y-9045889D01*
X14448753Y-9045889D02*
X14439229Y-9007793D01*
X14439229Y-9007793D02*
X14439229Y-8960174D01*
X14439229Y-8960174D02*
X14448753Y-8922079D01*
X14448753Y-8922079D02*
X14458277Y-8903031D01*
X14458277Y-8903031D02*
X14467801Y-8893508D01*
X14467801Y-8893508D02*
X14486848Y-8883984D01*
X14743991Y-9083984D02*
X14629706Y-9083984D01*
X14686848Y-9083984D02*
X14686848Y-8883984D01*
X14686848Y-8883984D02*
X14667801Y-8912555D01*
X14667801Y-8912555D02*
X14648753Y-8931603D01*
X14648753Y-8931603D02*
X14629706Y-8941127D01*
X14934467Y-9083984D02*
X14820182Y-9083984D01*
X14877325Y-9083984D02*
X14877325Y-8883984D01*
X14877325Y-8883984D02*
X14858277Y-8912555D01*
X14858277Y-8912555D02*
X14839229Y-8931603D01*
X14839229Y-8931603D02*
X14820182Y-8941127D01*
X15048753Y-8969698D02*
X15029706Y-8960174D01*
X15029706Y-8960174D02*
X15020182Y-8950650D01*
X15020182Y-8950650D02*
X15010658Y-8931603D01*
X15010658Y-8931603D02*
X15010658Y-8922079D01*
X15010658Y-8922079D02*
X15020182Y-8903031D01*
X15020182Y-8903031D02*
X15029706Y-8893508D01*
X15029706Y-8893508D02*
X15048753Y-8883984D01*
X15048753Y-8883984D02*
X15086848Y-8883984D01*
X15086848Y-8883984D02*
X15105896Y-8893508D01*
X15105896Y-8893508D02*
X15115420Y-8903031D01*
X15115420Y-8903031D02*
X15124944Y-8922079D01*
X15124944Y-8922079D02*
X15124944Y-8931603D01*
X15124944Y-8931603D02*
X15115420Y-8950650D01*
X15115420Y-8950650D02*
X15105896Y-8960174D01*
X15105896Y-8960174D02*
X15086848Y-8969698D01*
X15086848Y-8969698D02*
X15048753Y-8969698D01*
X15048753Y-8969698D02*
X15029706Y-8979222D01*
X15029706Y-8979222D02*
X15020182Y-8988746D01*
X15020182Y-8988746D02*
X15010658Y-9007793D01*
X15010658Y-9007793D02*
X15010658Y-9045889D01*
X15010658Y-9045889D02*
X15020182Y-9064936D01*
X15020182Y-9064936D02*
X15029706Y-9074460D01*
X15029706Y-9074460D02*
X15048753Y-9083984D01*
X15048753Y-9083984D02*
X15086848Y-9083984D01*
X15086848Y-9083984D02*
X15105896Y-9074460D01*
X15105896Y-9074460D02*
X15115420Y-9064936D01*
X15115420Y-9064936D02*
X15124944Y-9045889D01*
X15124944Y-9045889D02*
X15124944Y-9007793D01*
X15124944Y-9007793D02*
X15115420Y-8988746D01*
X15115420Y-8988746D02*
X15105896Y-8979222D01*
X15105896Y-8979222D02*
X15086848Y-8969698D01*
X15201134Y-8883984D02*
X15201134Y-8922079D01*
X15277325Y-8883984D02*
X15277325Y-8922079D01*
X15572563Y-9160174D02*
X15563039Y-9150650D01*
X15563039Y-9150650D02*
X15543991Y-9122079D01*
X15543991Y-9122079D02*
X15534468Y-9103031D01*
X15534468Y-9103031D02*
X15524944Y-9074460D01*
X15524944Y-9074460D02*
X15515420Y-9026841D01*
X15515420Y-9026841D02*
X15515420Y-8988746D01*
X15515420Y-8988746D02*
X15524944Y-8941127D01*
X15524944Y-8941127D02*
X15534468Y-8912555D01*
X15534468Y-8912555D02*
X15543991Y-8893508D01*
X15543991Y-8893508D02*
X15563039Y-8864936D01*
X15563039Y-8864936D02*
X15572563Y-8855412D01*
X15753515Y-9083984D02*
X15639229Y-9083984D01*
X15696372Y-9083984D02*
X15696372Y-8883984D01*
X15696372Y-8883984D02*
X15677325Y-8912555D01*
X15677325Y-8912555D02*
X15658277Y-8931603D01*
X15658277Y-8931603D02*
X15639229Y-8941127D01*
X15934468Y-8883984D02*
X15839229Y-8883984D01*
X15839229Y-8883984D02*
X15829706Y-8979222D01*
X15829706Y-8979222D02*
X15839229Y-8969698D01*
X15839229Y-8969698D02*
X15858277Y-8960174D01*
X15858277Y-8960174D02*
X15905896Y-8960174D01*
X15905896Y-8960174D02*
X15924944Y-8969698D01*
X15924944Y-8969698D02*
X15934468Y-8979222D01*
X15934468Y-8979222D02*
X15943991Y-8998270D01*
X15943991Y-8998270D02*
X15943991Y-9045889D01*
X15943991Y-9045889D02*
X15934468Y-9064936D01*
X15934468Y-9064936D02*
X15924944Y-9074460D01*
X15924944Y-9074460D02*
X15905896Y-9083984D01*
X15905896Y-9083984D02*
X15858277Y-9083984D01*
X15858277Y-9083984D02*
X15839229Y-9074460D01*
X15839229Y-9074460D02*
X15829706Y-9064936D01*
X16182087Y-9083984D02*
X16182087Y-8883984D01*
X16267801Y-9083984D02*
X16267801Y-8979222D01*
X16267801Y-8979222D02*
X16258277Y-8960174D01*
X16258277Y-8960174D02*
X16239230Y-8950650D01*
X16239230Y-8950650D02*
X16210658Y-8950650D01*
X16210658Y-8950650D02*
X16191610Y-8960174D01*
X16191610Y-8960174D02*
X16182087Y-8969698D01*
X16391610Y-9083984D02*
X16372563Y-9074460D01*
X16372563Y-9074460D02*
X16363039Y-9064936D01*
X16363039Y-9064936D02*
X16353515Y-9045889D01*
X16353515Y-9045889D02*
X16353515Y-8988746D01*
X16353515Y-8988746D02*
X16363039Y-8969698D01*
X16363039Y-8969698D02*
X16372563Y-8960174D01*
X16372563Y-8960174D02*
X16391610Y-8950650D01*
X16391610Y-8950650D02*
X16420182Y-8950650D01*
X16420182Y-8950650D02*
X16439230Y-8960174D01*
X16439230Y-8960174D02*
X16448753Y-8969698D01*
X16448753Y-8969698D02*
X16458277Y-8988746D01*
X16458277Y-8988746D02*
X16458277Y-9045889D01*
X16458277Y-9045889D02*
X16448753Y-9064936D01*
X16448753Y-9064936D02*
X16439230Y-9074460D01*
X16439230Y-9074460D02*
X16420182Y-9083984D01*
X16420182Y-9083984D02*
X16391610Y-9083984D01*
X16572563Y-9083984D02*
X16553515Y-9074460D01*
X16553515Y-9074460D02*
X16543991Y-9055412D01*
X16543991Y-9055412D02*
X16543991Y-8883984D01*
X16724944Y-9074460D02*
X16705896Y-9083984D01*
X16705896Y-9083984D02*
X16667801Y-9083984D01*
X16667801Y-9083984D02*
X16648753Y-9074460D01*
X16648753Y-9074460D02*
X16639230Y-9055412D01*
X16639230Y-9055412D02*
X16639230Y-8979222D01*
X16639230Y-8979222D02*
X16648753Y-8960174D01*
X16648753Y-8960174D02*
X16667801Y-8950650D01*
X16667801Y-8950650D02*
X16705896Y-8950650D01*
X16705896Y-8950650D02*
X16724944Y-8960174D01*
X16724944Y-8960174D02*
X16734468Y-8979222D01*
X16734468Y-8979222D02*
X16734468Y-8998270D01*
X16734468Y-8998270D02*
X16639230Y-9017317D01*
X16810658Y-9074460D02*
X16829706Y-9083984D01*
X16829706Y-9083984D02*
X16867801Y-9083984D01*
X16867801Y-9083984D02*
X16886849Y-9074460D01*
X16886849Y-9074460D02*
X16896373Y-9055412D01*
X16896373Y-9055412D02*
X16896373Y-9045889D01*
X16896373Y-9045889D02*
X16886849Y-9026841D01*
X16886849Y-9026841D02*
X16867801Y-9017317D01*
X16867801Y-9017317D02*
X16839230Y-9017317D01*
X16839230Y-9017317D02*
X16820182Y-9007793D01*
X16820182Y-9007793D02*
X16810658Y-8988746D01*
X16810658Y-8988746D02*
X16810658Y-8979222D01*
X16810658Y-8979222D02*
X16820182Y-8960174D01*
X16820182Y-8960174D02*
X16839230Y-8950650D01*
X16839230Y-8950650D02*
X16867801Y-8950650D01*
X16867801Y-8950650D02*
X16886849Y-8960174D01*
X16963039Y-9160174D02*
X16972563Y-9150650D01*
X16972563Y-9150650D02*
X16991611Y-9122079D01*
X16991611Y-9122079D02*
X17001134Y-9103031D01*
X17001134Y-9103031D02*
X17010658Y-9074460D01*
X17010658Y-9074460D02*
X17020182Y-9026841D01*
X17020182Y-9026841D02*
X17020182Y-8988746D01*
X17020182Y-8988746D02*
X17010658Y-8941127D01*
X17010658Y-8941127D02*
X17001134Y-8912555D01*
X17001134Y-8912555D02*
X16991611Y-8893508D01*
X16991611Y-8893508D02*
X16972563Y-8864936D01*
X16972563Y-8864936D02*
X16963039Y-8855412D01*
D12*
X11997500Y-9256500D02*
G75*
G02*
X11937500Y-9256500I-30000J0D01*
G01*
X11937500Y-9256500D02*
G75*
G02*
X11997500Y-9256500I30000J0D01*
G01*
D11*
X12296372Y-9147984D02*
X12315420Y-9147984D01*
X12315420Y-9147984D02*
X12334467Y-9157508D01*
X12334467Y-9157508D02*
X12343991Y-9167031D01*
X12343991Y-9167031D02*
X12353515Y-9186079D01*
X12353515Y-9186079D02*
X12363039Y-9224174D01*
X12363039Y-9224174D02*
X12363039Y-9271793D01*
X12363039Y-9271793D02*
X12353515Y-9309889D01*
X12353515Y-9309889D02*
X12343991Y-9328936D01*
X12343991Y-9328936D02*
X12334467Y-9338460D01*
X12334467Y-9338460D02*
X12315420Y-9347984D01*
X12315420Y-9347984D02*
X12296372Y-9347984D01*
X12296372Y-9347984D02*
X12277324Y-9338460D01*
X12277324Y-9338460D02*
X12267801Y-9328936D01*
X12267801Y-9328936D02*
X12258277Y-9309889D01*
X12258277Y-9309889D02*
X12248753Y-9271793D01*
X12248753Y-9271793D02*
X12248753Y-9224174D01*
X12248753Y-9224174D02*
X12258277Y-9186079D01*
X12258277Y-9186079D02*
X12267801Y-9167031D01*
X12267801Y-9167031D02*
X12277324Y-9157508D01*
X12277324Y-9157508D02*
X12296372Y-9147984D01*
X12448753Y-9328936D02*
X12458277Y-9338460D01*
X12458277Y-9338460D02*
X12448753Y-9347984D01*
X12448753Y-9347984D02*
X12439229Y-9338460D01*
X12439229Y-9338460D02*
X12448753Y-9328936D01*
X12448753Y-9328936D02*
X12448753Y-9347984D01*
X12629705Y-9147984D02*
X12591610Y-9147984D01*
X12591610Y-9147984D02*
X12572562Y-9157508D01*
X12572562Y-9157508D02*
X12563039Y-9167031D01*
X12563039Y-9167031D02*
X12543991Y-9195603D01*
X12543991Y-9195603D02*
X12534467Y-9233698D01*
X12534467Y-9233698D02*
X12534467Y-9309889D01*
X12534467Y-9309889D02*
X12543991Y-9328936D01*
X12543991Y-9328936D02*
X12553515Y-9338460D01*
X12553515Y-9338460D02*
X12572562Y-9347984D01*
X12572562Y-9347984D02*
X12610658Y-9347984D01*
X12610658Y-9347984D02*
X12629705Y-9338460D01*
X12629705Y-9338460D02*
X12639229Y-9328936D01*
X12639229Y-9328936D02*
X12648753Y-9309889D01*
X12648753Y-9309889D02*
X12648753Y-9262270D01*
X12648753Y-9262270D02*
X12639229Y-9243222D01*
X12639229Y-9243222D02*
X12629705Y-9233698D01*
X12629705Y-9233698D02*
X12610658Y-9224174D01*
X12610658Y-9224174D02*
X12572562Y-9224174D01*
X12572562Y-9224174D02*
X12553515Y-9233698D01*
X12553515Y-9233698D02*
X12543991Y-9243222D01*
X12543991Y-9243222D02*
X12534467Y-9262270D01*
X12772562Y-9147984D02*
X12791610Y-9147984D01*
X12791610Y-9147984D02*
X12810658Y-9157508D01*
X12810658Y-9157508D02*
X12820182Y-9167031D01*
X12820182Y-9167031D02*
X12829705Y-9186079D01*
X12829705Y-9186079D02*
X12839229Y-9224174D01*
X12839229Y-9224174D02*
X12839229Y-9271793D01*
X12839229Y-9271793D02*
X12829705Y-9309889D01*
X12829705Y-9309889D02*
X12820182Y-9328936D01*
X12820182Y-9328936D02*
X12810658Y-9338460D01*
X12810658Y-9338460D02*
X12791610Y-9347984D01*
X12791610Y-9347984D02*
X12772562Y-9347984D01*
X12772562Y-9347984D02*
X12753515Y-9338460D01*
X12753515Y-9338460D02*
X12743991Y-9328936D01*
X12743991Y-9328936D02*
X12734467Y-9309889D01*
X12734467Y-9309889D02*
X12724943Y-9271793D01*
X12724943Y-9271793D02*
X12724943Y-9224174D01*
X12724943Y-9224174D02*
X12734467Y-9186079D01*
X12734467Y-9186079D02*
X12743991Y-9167031D01*
X12743991Y-9167031D02*
X12753515Y-9157508D01*
X12753515Y-9157508D02*
X12772562Y-9147984D01*
X12963039Y-9147984D02*
X12982086Y-9147984D01*
X12982086Y-9147984D02*
X13001134Y-9157508D01*
X13001134Y-9157508D02*
X13010658Y-9167031D01*
X13010658Y-9167031D02*
X13020182Y-9186079D01*
X13020182Y-9186079D02*
X13029705Y-9224174D01*
X13029705Y-9224174D02*
X13029705Y-9271793D01*
X13029705Y-9271793D02*
X13020182Y-9309889D01*
X13020182Y-9309889D02*
X13010658Y-9328936D01*
X13010658Y-9328936D02*
X13001134Y-9338460D01*
X13001134Y-9338460D02*
X12982086Y-9347984D01*
X12982086Y-9347984D02*
X12963039Y-9347984D01*
X12963039Y-9347984D02*
X12943991Y-9338460D01*
X12943991Y-9338460D02*
X12934467Y-9328936D01*
X12934467Y-9328936D02*
X12924943Y-9309889D01*
X12924943Y-9309889D02*
X12915420Y-9271793D01*
X12915420Y-9271793D02*
X12915420Y-9224174D01*
X12915420Y-9224174D02*
X12924943Y-9186079D01*
X12924943Y-9186079D02*
X12934467Y-9167031D01*
X12934467Y-9167031D02*
X12943991Y-9157508D01*
X12943991Y-9157508D02*
X12963039Y-9147984D01*
X13115420Y-9347984D02*
X13115420Y-9214650D01*
X13115420Y-9233698D02*
X13124943Y-9224174D01*
X13124943Y-9224174D02*
X13143991Y-9214650D01*
X13143991Y-9214650D02*
X13172563Y-9214650D01*
X13172563Y-9214650D02*
X13191610Y-9224174D01*
X13191610Y-9224174D02*
X13201134Y-9243222D01*
X13201134Y-9243222D02*
X13201134Y-9347984D01*
X13201134Y-9243222D02*
X13210658Y-9224174D01*
X13210658Y-9224174D02*
X13229705Y-9214650D01*
X13229705Y-9214650D02*
X13258277Y-9214650D01*
X13258277Y-9214650D02*
X13277324Y-9224174D01*
X13277324Y-9224174D02*
X13286848Y-9243222D01*
X13286848Y-9243222D02*
X13286848Y-9347984D01*
X13382086Y-9347984D02*
X13382086Y-9214650D01*
X13382086Y-9233698D02*
X13391610Y-9224174D01*
X13391610Y-9224174D02*
X13410658Y-9214650D01*
X13410658Y-9214650D02*
X13439229Y-9214650D01*
X13439229Y-9214650D02*
X13458277Y-9224174D01*
X13458277Y-9224174D02*
X13467801Y-9243222D01*
X13467801Y-9243222D02*
X13467801Y-9347984D01*
X13467801Y-9243222D02*
X13477324Y-9224174D01*
X13477324Y-9224174D02*
X13496372Y-9214650D01*
X13496372Y-9214650D02*
X13524943Y-9214650D01*
X13524943Y-9214650D02*
X13543991Y-9224174D01*
X13543991Y-9224174D02*
X13553515Y-9243222D01*
X13553515Y-9243222D02*
X13553515Y-9347984D01*
X13943991Y-9138460D02*
X13772563Y-9395603D01*
X14201134Y-9147984D02*
X14220182Y-9147984D01*
X14220182Y-9147984D02*
X14239229Y-9157508D01*
X14239229Y-9157508D02*
X14248753Y-9167031D01*
X14248753Y-9167031D02*
X14258277Y-9186079D01*
X14258277Y-9186079D02*
X14267801Y-9224174D01*
X14267801Y-9224174D02*
X14267801Y-9271793D01*
X14267801Y-9271793D02*
X14258277Y-9309889D01*
X14258277Y-9309889D02*
X14248753Y-9328936D01*
X14248753Y-9328936D02*
X14239229Y-9338460D01*
X14239229Y-9338460D02*
X14220182Y-9347984D01*
X14220182Y-9347984D02*
X14201134Y-9347984D01*
X14201134Y-9347984D02*
X14182086Y-9338460D01*
X14182086Y-9338460D02*
X14172563Y-9328936D01*
X14172563Y-9328936D02*
X14163039Y-9309889D01*
X14163039Y-9309889D02*
X14153515Y-9271793D01*
X14153515Y-9271793D02*
X14153515Y-9224174D01*
X14153515Y-9224174D02*
X14163039Y-9186079D01*
X14163039Y-9186079D02*
X14172563Y-9167031D01*
X14172563Y-9167031D02*
X14182086Y-9157508D01*
X14182086Y-9157508D02*
X14201134Y-9147984D01*
X14353515Y-9328936D02*
X14363039Y-9338460D01*
X14363039Y-9338460D02*
X14353515Y-9347984D01*
X14353515Y-9347984D02*
X14343991Y-9338460D01*
X14343991Y-9338460D02*
X14353515Y-9328936D01*
X14353515Y-9328936D02*
X14353515Y-9347984D01*
X14486848Y-9147984D02*
X14505896Y-9147984D01*
X14505896Y-9147984D02*
X14524944Y-9157508D01*
X14524944Y-9157508D02*
X14534467Y-9167031D01*
X14534467Y-9167031D02*
X14543991Y-9186079D01*
X14543991Y-9186079D02*
X14553515Y-9224174D01*
X14553515Y-9224174D02*
X14553515Y-9271793D01*
X14553515Y-9271793D02*
X14543991Y-9309889D01*
X14543991Y-9309889D02*
X14534467Y-9328936D01*
X14534467Y-9328936D02*
X14524944Y-9338460D01*
X14524944Y-9338460D02*
X14505896Y-9347984D01*
X14505896Y-9347984D02*
X14486848Y-9347984D01*
X14486848Y-9347984D02*
X14467801Y-9338460D01*
X14467801Y-9338460D02*
X14458277Y-9328936D01*
X14458277Y-9328936D02*
X14448753Y-9309889D01*
X14448753Y-9309889D02*
X14439229Y-9271793D01*
X14439229Y-9271793D02*
X14439229Y-9224174D01*
X14439229Y-9224174D02*
X14448753Y-9186079D01*
X14448753Y-9186079D02*
X14458277Y-9167031D01*
X14458277Y-9167031D02*
X14467801Y-9157508D01*
X14467801Y-9157508D02*
X14486848Y-9147984D01*
X14629706Y-9167031D02*
X14639229Y-9157508D01*
X14639229Y-9157508D02*
X14658277Y-9147984D01*
X14658277Y-9147984D02*
X14705896Y-9147984D01*
X14705896Y-9147984D02*
X14724944Y-9157508D01*
X14724944Y-9157508D02*
X14734467Y-9167031D01*
X14734467Y-9167031D02*
X14743991Y-9186079D01*
X14743991Y-9186079D02*
X14743991Y-9205127D01*
X14743991Y-9205127D02*
X14734467Y-9233698D01*
X14734467Y-9233698D02*
X14620182Y-9347984D01*
X14620182Y-9347984D02*
X14743991Y-9347984D01*
X14810658Y-9147984D02*
X14934467Y-9147984D01*
X14934467Y-9147984D02*
X14867801Y-9224174D01*
X14867801Y-9224174D02*
X14896372Y-9224174D01*
X14896372Y-9224174D02*
X14915420Y-9233698D01*
X14915420Y-9233698D02*
X14924944Y-9243222D01*
X14924944Y-9243222D02*
X14934467Y-9262270D01*
X14934467Y-9262270D02*
X14934467Y-9309889D01*
X14934467Y-9309889D02*
X14924944Y-9328936D01*
X14924944Y-9328936D02*
X14915420Y-9338460D01*
X14915420Y-9338460D02*
X14896372Y-9347984D01*
X14896372Y-9347984D02*
X14839229Y-9347984D01*
X14839229Y-9347984D02*
X14820182Y-9338460D01*
X14820182Y-9338460D02*
X14810658Y-9328936D01*
X15105896Y-9147984D02*
X15067801Y-9147984D01*
X15067801Y-9147984D02*
X15048753Y-9157508D01*
X15048753Y-9157508D02*
X15039229Y-9167031D01*
X15039229Y-9167031D02*
X15020182Y-9195603D01*
X15020182Y-9195603D02*
X15010658Y-9233698D01*
X15010658Y-9233698D02*
X15010658Y-9309889D01*
X15010658Y-9309889D02*
X15020182Y-9328936D01*
X15020182Y-9328936D02*
X15029706Y-9338460D01*
X15029706Y-9338460D02*
X15048753Y-9347984D01*
X15048753Y-9347984D02*
X15086848Y-9347984D01*
X15086848Y-9347984D02*
X15105896Y-9338460D01*
X15105896Y-9338460D02*
X15115420Y-9328936D01*
X15115420Y-9328936D02*
X15124944Y-9309889D01*
X15124944Y-9309889D02*
X15124944Y-9262270D01*
X15124944Y-9262270D02*
X15115420Y-9243222D01*
X15115420Y-9243222D02*
X15105896Y-9233698D01*
X15105896Y-9233698D02*
X15086848Y-9224174D01*
X15086848Y-9224174D02*
X15048753Y-9224174D01*
X15048753Y-9224174D02*
X15029706Y-9233698D01*
X15029706Y-9233698D02*
X15020182Y-9243222D01*
X15020182Y-9243222D02*
X15010658Y-9262270D01*
X15201134Y-9147984D02*
X15201134Y-9186079D01*
X15277325Y-9147984D02*
X15277325Y-9186079D01*
X15572563Y-9424174D02*
X15563039Y-9414650D01*
X15563039Y-9414650D02*
X15543991Y-9386079D01*
X15543991Y-9386079D02*
X15534468Y-9367031D01*
X15534468Y-9367031D02*
X15524944Y-9338460D01*
X15524944Y-9338460D02*
X15515420Y-9290841D01*
X15515420Y-9290841D02*
X15515420Y-9252746D01*
X15515420Y-9252746D02*
X15524944Y-9205127D01*
X15524944Y-9205127D02*
X15534468Y-9176555D01*
X15534468Y-9176555D02*
X15543991Y-9157508D01*
X15543991Y-9157508D02*
X15563039Y-9128936D01*
X15563039Y-9128936D02*
X15572563Y-9119412D01*
X15686848Y-9147984D02*
X15705896Y-9147984D01*
X15705896Y-9147984D02*
X15724944Y-9157508D01*
X15724944Y-9157508D02*
X15734468Y-9167031D01*
X15734468Y-9167031D02*
X15743991Y-9186079D01*
X15743991Y-9186079D02*
X15753515Y-9224174D01*
X15753515Y-9224174D02*
X15753515Y-9271793D01*
X15753515Y-9271793D02*
X15743991Y-9309889D01*
X15743991Y-9309889D02*
X15734468Y-9328936D01*
X15734468Y-9328936D02*
X15724944Y-9338460D01*
X15724944Y-9338460D02*
X15705896Y-9347984D01*
X15705896Y-9347984D02*
X15686848Y-9347984D01*
X15686848Y-9347984D02*
X15667801Y-9338460D01*
X15667801Y-9338460D02*
X15658277Y-9328936D01*
X15658277Y-9328936D02*
X15648753Y-9309889D01*
X15648753Y-9309889D02*
X15639229Y-9271793D01*
X15639229Y-9271793D02*
X15639229Y-9224174D01*
X15639229Y-9224174D02*
X15648753Y-9186079D01*
X15648753Y-9186079D02*
X15658277Y-9167031D01*
X15658277Y-9167031D02*
X15667801Y-9157508D01*
X15667801Y-9157508D02*
X15686848Y-9147984D01*
X15991610Y-9347984D02*
X15991610Y-9147984D01*
X16077325Y-9347984D02*
X16077325Y-9243222D01*
X16077325Y-9243222D02*
X16067801Y-9224174D01*
X16067801Y-9224174D02*
X16048753Y-9214650D01*
X16048753Y-9214650D02*
X16020182Y-9214650D01*
X16020182Y-9214650D02*
X16001134Y-9224174D01*
X16001134Y-9224174D02*
X15991610Y-9233698D01*
X16201134Y-9347984D02*
X16182087Y-9338460D01*
X16182087Y-9338460D02*
X16172563Y-9328936D01*
X16172563Y-9328936D02*
X16163039Y-9309889D01*
X16163039Y-9309889D02*
X16163039Y-9252746D01*
X16163039Y-9252746D02*
X16172563Y-9233698D01*
X16172563Y-9233698D02*
X16182087Y-9224174D01*
X16182087Y-9224174D02*
X16201134Y-9214650D01*
X16201134Y-9214650D02*
X16229706Y-9214650D01*
X16229706Y-9214650D02*
X16248753Y-9224174D01*
X16248753Y-9224174D02*
X16258277Y-9233698D01*
X16258277Y-9233698D02*
X16267801Y-9252746D01*
X16267801Y-9252746D02*
X16267801Y-9309889D01*
X16267801Y-9309889D02*
X16258277Y-9328936D01*
X16258277Y-9328936D02*
X16248753Y-9338460D01*
X16248753Y-9338460D02*
X16229706Y-9347984D01*
X16229706Y-9347984D02*
X16201134Y-9347984D01*
X16382087Y-9347984D02*
X16363039Y-9338460D01*
X16363039Y-9338460D02*
X16353515Y-9319412D01*
X16353515Y-9319412D02*
X16353515Y-9147984D01*
X16534468Y-9338460D02*
X16515420Y-9347984D01*
X16515420Y-9347984D02*
X16477325Y-9347984D01*
X16477325Y-9347984D02*
X16458277Y-9338460D01*
X16458277Y-9338460D02*
X16448753Y-9319412D01*
X16448753Y-9319412D02*
X16448753Y-9243222D01*
X16448753Y-9243222D02*
X16458277Y-9224174D01*
X16458277Y-9224174D02*
X16477325Y-9214650D01*
X16477325Y-9214650D02*
X16515420Y-9214650D01*
X16515420Y-9214650D02*
X16534468Y-9224174D01*
X16534468Y-9224174D02*
X16543991Y-9243222D01*
X16543991Y-9243222D02*
X16543991Y-9262270D01*
X16543991Y-9262270D02*
X16448753Y-9281317D01*
X16620182Y-9338460D02*
X16639230Y-9347984D01*
X16639230Y-9347984D02*
X16677325Y-9347984D01*
X16677325Y-9347984D02*
X16696372Y-9338460D01*
X16696372Y-9338460D02*
X16705896Y-9319412D01*
X16705896Y-9319412D02*
X16705896Y-9309889D01*
X16705896Y-9309889D02*
X16696372Y-9290841D01*
X16696372Y-9290841D02*
X16677325Y-9281317D01*
X16677325Y-9281317D02*
X16648753Y-9281317D01*
X16648753Y-9281317D02*
X16629706Y-9271793D01*
X16629706Y-9271793D02*
X16620182Y-9252746D01*
X16620182Y-9252746D02*
X16620182Y-9243222D01*
X16620182Y-9243222D02*
X16629706Y-9224174D01*
X16629706Y-9224174D02*
X16648753Y-9214650D01*
X16648753Y-9214650D02*
X16677325Y-9214650D01*
X16677325Y-9214650D02*
X16696372Y-9224174D01*
X16943992Y-9271793D02*
X17096373Y-9271793D01*
X17020182Y-9347984D02*
X17020182Y-9195603D01*
X17429706Y-9214650D02*
X17429706Y-9347984D01*
X17382087Y-9138460D02*
X17334468Y-9281317D01*
X17334468Y-9281317D02*
X17458277Y-9281317D01*
X17677325Y-9338460D02*
X17696373Y-9347984D01*
X17696373Y-9347984D02*
X17734468Y-9347984D01*
X17734468Y-9347984D02*
X17753516Y-9338460D01*
X17753516Y-9338460D02*
X17763039Y-9319412D01*
X17763039Y-9319412D02*
X17763039Y-9309889D01*
X17763039Y-9309889D02*
X17753516Y-9290841D01*
X17753516Y-9290841D02*
X17734468Y-9281317D01*
X17734468Y-9281317D02*
X17705896Y-9281317D01*
X17705896Y-9281317D02*
X17686849Y-9271793D01*
X17686849Y-9271793D02*
X17677325Y-9252746D01*
X17677325Y-9252746D02*
X17677325Y-9243222D01*
X17677325Y-9243222D02*
X17686849Y-9224174D01*
X17686849Y-9224174D02*
X17705896Y-9214650D01*
X17705896Y-9214650D02*
X17734468Y-9214650D01*
X17734468Y-9214650D02*
X17753516Y-9224174D01*
X17877325Y-9347984D02*
X17858277Y-9338460D01*
X17858277Y-9338460D02*
X17848754Y-9319412D01*
X17848754Y-9319412D02*
X17848754Y-9147984D01*
X17982087Y-9347984D02*
X17963039Y-9338460D01*
X17963039Y-9338460D02*
X17953516Y-9328936D01*
X17953516Y-9328936D02*
X17943992Y-9309889D01*
X17943992Y-9309889D02*
X17943992Y-9252746D01*
X17943992Y-9252746D02*
X17953516Y-9233698D01*
X17953516Y-9233698D02*
X17963039Y-9224174D01*
X17963039Y-9224174D02*
X17982087Y-9214650D01*
X17982087Y-9214650D02*
X18010658Y-9214650D01*
X18010658Y-9214650D02*
X18029706Y-9224174D01*
X18029706Y-9224174D02*
X18039230Y-9233698D01*
X18039230Y-9233698D02*
X18048754Y-9252746D01*
X18048754Y-9252746D02*
X18048754Y-9309889D01*
X18048754Y-9309889D02*
X18039230Y-9328936D01*
X18039230Y-9328936D02*
X18029706Y-9338460D01*
X18029706Y-9338460D02*
X18010658Y-9347984D01*
X18010658Y-9347984D02*
X17982087Y-9347984D01*
X18105897Y-9214650D02*
X18182087Y-9214650D01*
X18134468Y-9147984D02*
X18134468Y-9319412D01*
X18134468Y-9319412D02*
X18143992Y-9338460D01*
X18143992Y-9338460D02*
X18163039Y-9347984D01*
X18163039Y-9347984D02*
X18182087Y-9347984D01*
X18239230Y-9338460D02*
X18258277Y-9347984D01*
X18258277Y-9347984D02*
X18296373Y-9347984D01*
X18296373Y-9347984D02*
X18315420Y-9338460D01*
X18315420Y-9338460D02*
X18324944Y-9319412D01*
X18324944Y-9319412D02*
X18324944Y-9309889D01*
X18324944Y-9309889D02*
X18315420Y-9290841D01*
X18315420Y-9290841D02*
X18296373Y-9281317D01*
X18296373Y-9281317D02*
X18267801Y-9281317D01*
X18267801Y-9281317D02*
X18248754Y-9271793D01*
X18248754Y-9271793D02*
X18239230Y-9252746D01*
X18239230Y-9252746D02*
X18239230Y-9243222D01*
X18239230Y-9243222D02*
X18248754Y-9224174D01*
X18248754Y-9224174D02*
X18267801Y-9214650D01*
X18267801Y-9214650D02*
X18296373Y-9214650D01*
X18296373Y-9214650D02*
X18315420Y-9224174D01*
X18391611Y-9424174D02*
X18401135Y-9414650D01*
X18401135Y-9414650D02*
X18420182Y-9386079D01*
X18420182Y-9386079D02*
X18429706Y-9367031D01*
X18429706Y-9367031D02*
X18439230Y-9338460D01*
X18439230Y-9338460D02*
X18448754Y-9290841D01*
X18448754Y-9290841D02*
X18448754Y-9252746D01*
X18448754Y-9252746D02*
X18439230Y-9205127D01*
X18439230Y-9205127D02*
X18429706Y-9176555D01*
X18429706Y-9176555D02*
X18420182Y-9157508D01*
X18420182Y-9157508D02*
X18401135Y-9128936D01*
X18401135Y-9128936D02*
X18391611Y-9119412D01*
D12*
X11947500Y-9470500D02*
X11947500Y-9570500D01*
X11897500Y-9520500D02*
X11997500Y-9520500D01*
D11*
X12363039Y-9611984D02*
X12248753Y-9611984D01*
X12305896Y-9611984D02*
X12305896Y-9411984D01*
X12305896Y-9411984D02*
X12286848Y-9440555D01*
X12286848Y-9440555D02*
X12267801Y-9459603D01*
X12267801Y-9459603D02*
X12248753Y-9469127D01*
X12448753Y-9592936D02*
X12458277Y-9602460D01*
X12458277Y-9602460D02*
X12448753Y-9611984D01*
X12448753Y-9611984D02*
X12439229Y-9602460D01*
X12439229Y-9602460D02*
X12448753Y-9592936D01*
X12448753Y-9592936D02*
X12448753Y-9611984D01*
X12582086Y-9411984D02*
X12601134Y-9411984D01*
X12601134Y-9411984D02*
X12620182Y-9421508D01*
X12620182Y-9421508D02*
X12629705Y-9431031D01*
X12629705Y-9431031D02*
X12639229Y-9450079D01*
X12639229Y-9450079D02*
X12648753Y-9488174D01*
X12648753Y-9488174D02*
X12648753Y-9535793D01*
X12648753Y-9535793D02*
X12639229Y-9573889D01*
X12639229Y-9573889D02*
X12629705Y-9592936D01*
X12629705Y-9592936D02*
X12620182Y-9602460D01*
X12620182Y-9602460D02*
X12601134Y-9611984D01*
X12601134Y-9611984D02*
X12582086Y-9611984D01*
X12582086Y-9611984D02*
X12563039Y-9602460D01*
X12563039Y-9602460D02*
X12553515Y-9592936D01*
X12553515Y-9592936D02*
X12543991Y-9573889D01*
X12543991Y-9573889D02*
X12534467Y-9535793D01*
X12534467Y-9535793D02*
X12534467Y-9488174D01*
X12534467Y-9488174D02*
X12543991Y-9450079D01*
X12543991Y-9450079D02*
X12553515Y-9431031D01*
X12553515Y-9431031D02*
X12563039Y-9421508D01*
X12563039Y-9421508D02*
X12582086Y-9411984D01*
X12772562Y-9411984D02*
X12791610Y-9411984D01*
X12791610Y-9411984D02*
X12810658Y-9421508D01*
X12810658Y-9421508D02*
X12820182Y-9431031D01*
X12820182Y-9431031D02*
X12829705Y-9450079D01*
X12829705Y-9450079D02*
X12839229Y-9488174D01*
X12839229Y-9488174D02*
X12839229Y-9535793D01*
X12839229Y-9535793D02*
X12829705Y-9573889D01*
X12829705Y-9573889D02*
X12820182Y-9592936D01*
X12820182Y-9592936D02*
X12810658Y-9602460D01*
X12810658Y-9602460D02*
X12791610Y-9611984D01*
X12791610Y-9611984D02*
X12772562Y-9611984D01*
X12772562Y-9611984D02*
X12753515Y-9602460D01*
X12753515Y-9602460D02*
X12743991Y-9592936D01*
X12743991Y-9592936D02*
X12734467Y-9573889D01*
X12734467Y-9573889D02*
X12724943Y-9535793D01*
X12724943Y-9535793D02*
X12724943Y-9488174D01*
X12724943Y-9488174D02*
X12734467Y-9450079D01*
X12734467Y-9450079D02*
X12743991Y-9431031D01*
X12743991Y-9431031D02*
X12753515Y-9421508D01*
X12753515Y-9421508D02*
X12772562Y-9411984D01*
X12963039Y-9411984D02*
X12982086Y-9411984D01*
X12982086Y-9411984D02*
X13001134Y-9421508D01*
X13001134Y-9421508D02*
X13010658Y-9431031D01*
X13010658Y-9431031D02*
X13020182Y-9450079D01*
X13020182Y-9450079D02*
X13029705Y-9488174D01*
X13029705Y-9488174D02*
X13029705Y-9535793D01*
X13029705Y-9535793D02*
X13020182Y-9573889D01*
X13020182Y-9573889D02*
X13010658Y-9592936D01*
X13010658Y-9592936D02*
X13001134Y-9602460D01*
X13001134Y-9602460D02*
X12982086Y-9611984D01*
X12982086Y-9611984D02*
X12963039Y-9611984D01*
X12963039Y-9611984D02*
X12943991Y-9602460D01*
X12943991Y-9602460D02*
X12934467Y-9592936D01*
X12934467Y-9592936D02*
X12924943Y-9573889D01*
X12924943Y-9573889D02*
X12915420Y-9535793D01*
X12915420Y-9535793D02*
X12915420Y-9488174D01*
X12915420Y-9488174D02*
X12924943Y-9450079D01*
X12924943Y-9450079D02*
X12934467Y-9431031D01*
X12934467Y-9431031D02*
X12943991Y-9421508D01*
X12943991Y-9421508D02*
X12963039Y-9411984D01*
X13115420Y-9611984D02*
X13115420Y-9478650D01*
X13115420Y-9497698D02*
X13124943Y-9488174D01*
X13124943Y-9488174D02*
X13143991Y-9478650D01*
X13143991Y-9478650D02*
X13172563Y-9478650D01*
X13172563Y-9478650D02*
X13191610Y-9488174D01*
X13191610Y-9488174D02*
X13201134Y-9507222D01*
X13201134Y-9507222D02*
X13201134Y-9611984D01*
X13201134Y-9507222D02*
X13210658Y-9488174D01*
X13210658Y-9488174D02*
X13229705Y-9478650D01*
X13229705Y-9478650D02*
X13258277Y-9478650D01*
X13258277Y-9478650D02*
X13277324Y-9488174D01*
X13277324Y-9488174D02*
X13286848Y-9507222D01*
X13286848Y-9507222D02*
X13286848Y-9611984D01*
X13382086Y-9611984D02*
X13382086Y-9478650D01*
X13382086Y-9497698D02*
X13391610Y-9488174D01*
X13391610Y-9488174D02*
X13410658Y-9478650D01*
X13410658Y-9478650D02*
X13439229Y-9478650D01*
X13439229Y-9478650D02*
X13458277Y-9488174D01*
X13458277Y-9488174D02*
X13467801Y-9507222D01*
X13467801Y-9507222D02*
X13467801Y-9611984D01*
X13467801Y-9507222D02*
X13477324Y-9488174D01*
X13477324Y-9488174D02*
X13496372Y-9478650D01*
X13496372Y-9478650D02*
X13524943Y-9478650D01*
X13524943Y-9478650D02*
X13543991Y-9488174D01*
X13543991Y-9488174D02*
X13553515Y-9507222D01*
X13553515Y-9507222D02*
X13553515Y-9611984D01*
X13943991Y-9402460D02*
X13772563Y-9659603D01*
X14201134Y-9411984D02*
X14220182Y-9411984D01*
X14220182Y-9411984D02*
X14239229Y-9421508D01*
X14239229Y-9421508D02*
X14248753Y-9431031D01*
X14248753Y-9431031D02*
X14258277Y-9450079D01*
X14258277Y-9450079D02*
X14267801Y-9488174D01*
X14267801Y-9488174D02*
X14267801Y-9535793D01*
X14267801Y-9535793D02*
X14258277Y-9573889D01*
X14258277Y-9573889D02*
X14248753Y-9592936D01*
X14248753Y-9592936D02*
X14239229Y-9602460D01*
X14239229Y-9602460D02*
X14220182Y-9611984D01*
X14220182Y-9611984D02*
X14201134Y-9611984D01*
X14201134Y-9611984D02*
X14182086Y-9602460D01*
X14182086Y-9602460D02*
X14172563Y-9592936D01*
X14172563Y-9592936D02*
X14163039Y-9573889D01*
X14163039Y-9573889D02*
X14153515Y-9535793D01*
X14153515Y-9535793D02*
X14153515Y-9488174D01*
X14153515Y-9488174D02*
X14163039Y-9450079D01*
X14163039Y-9450079D02*
X14172563Y-9431031D01*
X14172563Y-9431031D02*
X14182086Y-9421508D01*
X14182086Y-9421508D02*
X14201134Y-9411984D01*
X14353515Y-9592936D02*
X14363039Y-9602460D01*
X14363039Y-9602460D02*
X14353515Y-9611984D01*
X14353515Y-9611984D02*
X14343991Y-9602460D01*
X14343991Y-9602460D02*
X14353515Y-9592936D01*
X14353515Y-9592936D02*
X14353515Y-9611984D01*
X14486848Y-9411984D02*
X14505896Y-9411984D01*
X14505896Y-9411984D02*
X14524944Y-9421508D01*
X14524944Y-9421508D02*
X14534467Y-9431031D01*
X14534467Y-9431031D02*
X14543991Y-9450079D01*
X14543991Y-9450079D02*
X14553515Y-9488174D01*
X14553515Y-9488174D02*
X14553515Y-9535793D01*
X14553515Y-9535793D02*
X14543991Y-9573889D01*
X14543991Y-9573889D02*
X14534467Y-9592936D01*
X14534467Y-9592936D02*
X14524944Y-9602460D01*
X14524944Y-9602460D02*
X14505896Y-9611984D01*
X14505896Y-9611984D02*
X14486848Y-9611984D01*
X14486848Y-9611984D02*
X14467801Y-9602460D01*
X14467801Y-9602460D02*
X14458277Y-9592936D01*
X14458277Y-9592936D02*
X14448753Y-9573889D01*
X14448753Y-9573889D02*
X14439229Y-9535793D01*
X14439229Y-9535793D02*
X14439229Y-9488174D01*
X14439229Y-9488174D02*
X14448753Y-9450079D01*
X14448753Y-9450079D02*
X14458277Y-9431031D01*
X14458277Y-9431031D02*
X14467801Y-9421508D01*
X14467801Y-9421508D02*
X14486848Y-9411984D01*
X14620182Y-9411984D02*
X14743991Y-9411984D01*
X14743991Y-9411984D02*
X14677325Y-9488174D01*
X14677325Y-9488174D02*
X14705896Y-9488174D01*
X14705896Y-9488174D02*
X14724944Y-9497698D01*
X14724944Y-9497698D02*
X14734467Y-9507222D01*
X14734467Y-9507222D02*
X14743991Y-9526270D01*
X14743991Y-9526270D02*
X14743991Y-9573889D01*
X14743991Y-9573889D02*
X14734467Y-9592936D01*
X14734467Y-9592936D02*
X14724944Y-9602460D01*
X14724944Y-9602460D02*
X14705896Y-9611984D01*
X14705896Y-9611984D02*
X14648753Y-9611984D01*
X14648753Y-9611984D02*
X14629706Y-9602460D01*
X14629706Y-9602460D02*
X14620182Y-9592936D01*
X14839229Y-9611984D02*
X14877325Y-9611984D01*
X14877325Y-9611984D02*
X14896372Y-9602460D01*
X14896372Y-9602460D02*
X14905896Y-9592936D01*
X14905896Y-9592936D02*
X14924944Y-9564365D01*
X14924944Y-9564365D02*
X14934467Y-9526270D01*
X14934467Y-9526270D02*
X14934467Y-9450079D01*
X14934467Y-9450079D02*
X14924944Y-9431031D01*
X14924944Y-9431031D02*
X14915420Y-9421508D01*
X14915420Y-9421508D02*
X14896372Y-9411984D01*
X14896372Y-9411984D02*
X14858277Y-9411984D01*
X14858277Y-9411984D02*
X14839229Y-9421508D01*
X14839229Y-9421508D02*
X14829706Y-9431031D01*
X14829706Y-9431031D02*
X14820182Y-9450079D01*
X14820182Y-9450079D02*
X14820182Y-9497698D01*
X14820182Y-9497698D02*
X14829706Y-9516746D01*
X14829706Y-9516746D02*
X14839229Y-9526270D01*
X14839229Y-9526270D02*
X14858277Y-9535793D01*
X14858277Y-9535793D02*
X14896372Y-9535793D01*
X14896372Y-9535793D02*
X14915420Y-9526270D01*
X14915420Y-9526270D02*
X14924944Y-9516746D01*
X14924944Y-9516746D02*
X14934467Y-9497698D01*
X15105896Y-9478650D02*
X15105896Y-9611984D01*
X15058277Y-9402460D02*
X15010658Y-9545317D01*
X15010658Y-9545317D02*
X15134467Y-9545317D01*
X15201134Y-9411984D02*
X15201134Y-9450079D01*
X15277325Y-9411984D02*
X15277325Y-9450079D01*
X15572563Y-9688174D02*
X15563039Y-9678650D01*
X15563039Y-9678650D02*
X15543991Y-9650079D01*
X15543991Y-9650079D02*
X15534468Y-9631031D01*
X15534468Y-9631031D02*
X15524944Y-9602460D01*
X15524944Y-9602460D02*
X15515420Y-9554841D01*
X15515420Y-9554841D02*
X15515420Y-9516746D01*
X15515420Y-9516746D02*
X15524944Y-9469127D01*
X15524944Y-9469127D02*
X15534468Y-9440555D01*
X15534468Y-9440555D02*
X15543991Y-9421508D01*
X15543991Y-9421508D02*
X15563039Y-9392936D01*
X15563039Y-9392936D02*
X15572563Y-9383412D01*
X15734468Y-9411984D02*
X15696372Y-9411984D01*
X15696372Y-9411984D02*
X15677325Y-9421508D01*
X15677325Y-9421508D02*
X15667801Y-9431031D01*
X15667801Y-9431031D02*
X15648753Y-9459603D01*
X15648753Y-9459603D02*
X15639229Y-9497698D01*
X15639229Y-9497698D02*
X15639229Y-9573889D01*
X15639229Y-9573889D02*
X15648753Y-9592936D01*
X15648753Y-9592936D02*
X15658277Y-9602460D01*
X15658277Y-9602460D02*
X15677325Y-9611984D01*
X15677325Y-9611984D02*
X15715420Y-9611984D01*
X15715420Y-9611984D02*
X15734468Y-9602460D01*
X15734468Y-9602460D02*
X15743991Y-9592936D01*
X15743991Y-9592936D02*
X15753515Y-9573889D01*
X15753515Y-9573889D02*
X15753515Y-9526270D01*
X15753515Y-9526270D02*
X15743991Y-9507222D01*
X15743991Y-9507222D02*
X15734468Y-9497698D01*
X15734468Y-9497698D02*
X15715420Y-9488174D01*
X15715420Y-9488174D02*
X15677325Y-9488174D01*
X15677325Y-9488174D02*
X15658277Y-9497698D01*
X15658277Y-9497698D02*
X15648753Y-9507222D01*
X15648753Y-9507222D02*
X15639229Y-9526270D01*
X15991610Y-9611984D02*
X15991610Y-9411984D01*
X16077325Y-9611984D02*
X16077325Y-9507222D01*
X16077325Y-9507222D02*
X16067801Y-9488174D01*
X16067801Y-9488174D02*
X16048753Y-9478650D01*
X16048753Y-9478650D02*
X16020182Y-9478650D01*
X16020182Y-9478650D02*
X16001134Y-9488174D01*
X16001134Y-9488174D02*
X15991610Y-9497698D01*
X16201134Y-9611984D02*
X16182087Y-9602460D01*
X16182087Y-9602460D02*
X16172563Y-9592936D01*
X16172563Y-9592936D02*
X16163039Y-9573889D01*
X16163039Y-9573889D02*
X16163039Y-9516746D01*
X16163039Y-9516746D02*
X16172563Y-9497698D01*
X16172563Y-9497698D02*
X16182087Y-9488174D01*
X16182087Y-9488174D02*
X16201134Y-9478650D01*
X16201134Y-9478650D02*
X16229706Y-9478650D01*
X16229706Y-9478650D02*
X16248753Y-9488174D01*
X16248753Y-9488174D02*
X16258277Y-9497698D01*
X16258277Y-9497698D02*
X16267801Y-9516746D01*
X16267801Y-9516746D02*
X16267801Y-9573889D01*
X16267801Y-9573889D02*
X16258277Y-9592936D01*
X16258277Y-9592936D02*
X16248753Y-9602460D01*
X16248753Y-9602460D02*
X16229706Y-9611984D01*
X16229706Y-9611984D02*
X16201134Y-9611984D01*
X16382087Y-9611984D02*
X16363039Y-9602460D01*
X16363039Y-9602460D02*
X16353515Y-9583412D01*
X16353515Y-9583412D02*
X16353515Y-9411984D01*
X16534468Y-9602460D02*
X16515420Y-9611984D01*
X16515420Y-9611984D02*
X16477325Y-9611984D01*
X16477325Y-9611984D02*
X16458277Y-9602460D01*
X16458277Y-9602460D02*
X16448753Y-9583412D01*
X16448753Y-9583412D02*
X16448753Y-9507222D01*
X16448753Y-9507222D02*
X16458277Y-9488174D01*
X16458277Y-9488174D02*
X16477325Y-9478650D01*
X16477325Y-9478650D02*
X16515420Y-9478650D01*
X16515420Y-9478650D02*
X16534468Y-9488174D01*
X16534468Y-9488174D02*
X16543991Y-9507222D01*
X16543991Y-9507222D02*
X16543991Y-9526270D01*
X16543991Y-9526270D02*
X16448753Y-9545317D01*
X16620182Y-9602460D02*
X16639230Y-9611984D01*
X16639230Y-9611984D02*
X16677325Y-9611984D01*
X16677325Y-9611984D02*
X16696372Y-9602460D01*
X16696372Y-9602460D02*
X16705896Y-9583412D01*
X16705896Y-9583412D02*
X16705896Y-9573889D01*
X16705896Y-9573889D02*
X16696372Y-9554841D01*
X16696372Y-9554841D02*
X16677325Y-9545317D01*
X16677325Y-9545317D02*
X16648753Y-9545317D01*
X16648753Y-9545317D02*
X16629706Y-9535793D01*
X16629706Y-9535793D02*
X16620182Y-9516746D01*
X16620182Y-9516746D02*
X16620182Y-9507222D01*
X16620182Y-9507222D02*
X16629706Y-9488174D01*
X16629706Y-9488174D02*
X16648753Y-9478650D01*
X16648753Y-9478650D02*
X16677325Y-9478650D01*
X16677325Y-9478650D02*
X16696372Y-9488174D01*
X16772563Y-9688174D02*
X16782087Y-9678650D01*
X16782087Y-9678650D02*
X16801134Y-9650079D01*
X16801134Y-9650079D02*
X16810658Y-9631031D01*
X16810658Y-9631031D02*
X16820182Y-9602460D01*
X16820182Y-9602460D02*
X16829706Y-9554841D01*
X16829706Y-9554841D02*
X16829706Y-9516746D01*
X16829706Y-9516746D02*
X16820182Y-9469127D01*
X16820182Y-9469127D02*
X16810658Y-9440555D01*
X16810658Y-9440555D02*
X16801134Y-9421508D01*
X16801134Y-9421508D02*
X16782087Y-9392936D01*
X16782087Y-9392936D02*
X16772563Y-9383412D01*
D12*
X11987981Y-9807481D02*
X11987981Y-9761519D01*
X11942019Y-9761519D01*
X11942019Y-9807481D01*
X11987981Y-9807481D01*
D11*
X12296372Y-9675984D02*
X12315420Y-9675984D01*
X12315420Y-9675984D02*
X12334467Y-9685508D01*
X12334467Y-9685508D02*
X12343991Y-9695031D01*
X12343991Y-9695031D02*
X12353515Y-9714079D01*
X12353515Y-9714079D02*
X12363039Y-9752174D01*
X12363039Y-9752174D02*
X12363039Y-9799793D01*
X12363039Y-9799793D02*
X12353515Y-9837889D01*
X12353515Y-9837889D02*
X12343991Y-9856936D01*
X12343991Y-9856936D02*
X12334467Y-9866460D01*
X12334467Y-9866460D02*
X12315420Y-9875984D01*
X12315420Y-9875984D02*
X12296372Y-9875984D01*
X12296372Y-9875984D02*
X12277324Y-9866460D01*
X12277324Y-9866460D02*
X12267801Y-9856936D01*
X12267801Y-9856936D02*
X12258277Y-9837889D01*
X12258277Y-9837889D02*
X12248753Y-9799793D01*
X12248753Y-9799793D02*
X12248753Y-9752174D01*
X12248753Y-9752174D02*
X12258277Y-9714079D01*
X12258277Y-9714079D02*
X12267801Y-9695031D01*
X12267801Y-9695031D02*
X12277324Y-9685508D01*
X12277324Y-9685508D02*
X12296372Y-9675984D01*
X12448753Y-9856936D02*
X12458277Y-9866460D01*
X12458277Y-9866460D02*
X12448753Y-9875984D01*
X12448753Y-9875984D02*
X12439229Y-9866460D01*
X12439229Y-9866460D02*
X12448753Y-9856936D01*
X12448753Y-9856936D02*
X12448753Y-9875984D01*
X12629705Y-9675984D02*
X12591610Y-9675984D01*
X12591610Y-9675984D02*
X12572562Y-9685508D01*
X12572562Y-9685508D02*
X12563039Y-9695031D01*
X12563039Y-9695031D02*
X12543991Y-9723603D01*
X12543991Y-9723603D02*
X12534467Y-9761698D01*
X12534467Y-9761698D02*
X12534467Y-9837889D01*
X12534467Y-9837889D02*
X12543991Y-9856936D01*
X12543991Y-9856936D02*
X12553515Y-9866460D01*
X12553515Y-9866460D02*
X12572562Y-9875984D01*
X12572562Y-9875984D02*
X12610658Y-9875984D01*
X12610658Y-9875984D02*
X12629705Y-9866460D01*
X12629705Y-9866460D02*
X12639229Y-9856936D01*
X12639229Y-9856936D02*
X12648753Y-9837889D01*
X12648753Y-9837889D02*
X12648753Y-9790270D01*
X12648753Y-9790270D02*
X12639229Y-9771222D01*
X12639229Y-9771222D02*
X12629705Y-9761698D01*
X12629705Y-9761698D02*
X12610658Y-9752174D01*
X12610658Y-9752174D02*
X12572562Y-9752174D01*
X12572562Y-9752174D02*
X12553515Y-9761698D01*
X12553515Y-9761698D02*
X12543991Y-9771222D01*
X12543991Y-9771222D02*
X12534467Y-9790270D01*
X12829705Y-9675984D02*
X12734467Y-9675984D01*
X12734467Y-9675984D02*
X12724943Y-9771222D01*
X12724943Y-9771222D02*
X12734467Y-9761698D01*
X12734467Y-9761698D02*
X12753515Y-9752174D01*
X12753515Y-9752174D02*
X12801134Y-9752174D01*
X12801134Y-9752174D02*
X12820182Y-9761698D01*
X12820182Y-9761698D02*
X12829705Y-9771222D01*
X12829705Y-9771222D02*
X12839229Y-9790270D01*
X12839229Y-9790270D02*
X12839229Y-9837889D01*
X12839229Y-9837889D02*
X12829705Y-9856936D01*
X12829705Y-9856936D02*
X12820182Y-9866460D01*
X12820182Y-9866460D02*
X12801134Y-9875984D01*
X12801134Y-9875984D02*
X12753515Y-9875984D01*
X12753515Y-9875984D02*
X12734467Y-9866460D01*
X12734467Y-9866460D02*
X12724943Y-9856936D01*
X12963039Y-9675984D02*
X12982086Y-9675984D01*
X12982086Y-9675984D02*
X13001134Y-9685508D01*
X13001134Y-9685508D02*
X13010658Y-9695031D01*
X13010658Y-9695031D02*
X13020182Y-9714079D01*
X13020182Y-9714079D02*
X13029705Y-9752174D01*
X13029705Y-9752174D02*
X13029705Y-9799793D01*
X13029705Y-9799793D02*
X13020182Y-9837889D01*
X13020182Y-9837889D02*
X13010658Y-9856936D01*
X13010658Y-9856936D02*
X13001134Y-9866460D01*
X13001134Y-9866460D02*
X12982086Y-9875984D01*
X12982086Y-9875984D02*
X12963039Y-9875984D01*
X12963039Y-9875984D02*
X12943991Y-9866460D01*
X12943991Y-9866460D02*
X12934467Y-9856936D01*
X12934467Y-9856936D02*
X12924943Y-9837889D01*
X12924943Y-9837889D02*
X12915420Y-9799793D01*
X12915420Y-9799793D02*
X12915420Y-9752174D01*
X12915420Y-9752174D02*
X12924943Y-9714079D01*
X12924943Y-9714079D02*
X12934467Y-9695031D01*
X12934467Y-9695031D02*
X12943991Y-9685508D01*
X12943991Y-9685508D02*
X12963039Y-9675984D01*
X13115420Y-9875984D02*
X13115420Y-9742650D01*
X13115420Y-9761698D02*
X13124943Y-9752174D01*
X13124943Y-9752174D02*
X13143991Y-9742650D01*
X13143991Y-9742650D02*
X13172563Y-9742650D01*
X13172563Y-9742650D02*
X13191610Y-9752174D01*
X13191610Y-9752174D02*
X13201134Y-9771222D01*
X13201134Y-9771222D02*
X13201134Y-9875984D01*
X13201134Y-9771222D02*
X13210658Y-9752174D01*
X13210658Y-9752174D02*
X13229705Y-9742650D01*
X13229705Y-9742650D02*
X13258277Y-9742650D01*
X13258277Y-9742650D02*
X13277324Y-9752174D01*
X13277324Y-9752174D02*
X13286848Y-9771222D01*
X13286848Y-9771222D02*
X13286848Y-9875984D01*
X13382086Y-9875984D02*
X13382086Y-9742650D01*
X13382086Y-9761698D02*
X13391610Y-9752174D01*
X13391610Y-9752174D02*
X13410658Y-9742650D01*
X13410658Y-9742650D02*
X13439229Y-9742650D01*
X13439229Y-9742650D02*
X13458277Y-9752174D01*
X13458277Y-9752174D02*
X13467801Y-9771222D01*
X13467801Y-9771222D02*
X13467801Y-9875984D01*
X13467801Y-9771222D02*
X13477324Y-9752174D01*
X13477324Y-9752174D02*
X13496372Y-9742650D01*
X13496372Y-9742650D02*
X13524943Y-9742650D01*
X13524943Y-9742650D02*
X13543991Y-9752174D01*
X13543991Y-9752174D02*
X13553515Y-9771222D01*
X13553515Y-9771222D02*
X13553515Y-9875984D01*
X13943991Y-9666460D02*
X13772563Y-9923603D01*
X14201134Y-9675984D02*
X14220182Y-9675984D01*
X14220182Y-9675984D02*
X14239229Y-9685508D01*
X14239229Y-9685508D02*
X14248753Y-9695031D01*
X14248753Y-9695031D02*
X14258277Y-9714079D01*
X14258277Y-9714079D02*
X14267801Y-9752174D01*
X14267801Y-9752174D02*
X14267801Y-9799793D01*
X14267801Y-9799793D02*
X14258277Y-9837889D01*
X14258277Y-9837889D02*
X14248753Y-9856936D01*
X14248753Y-9856936D02*
X14239229Y-9866460D01*
X14239229Y-9866460D02*
X14220182Y-9875984D01*
X14220182Y-9875984D02*
X14201134Y-9875984D01*
X14201134Y-9875984D02*
X14182086Y-9866460D01*
X14182086Y-9866460D02*
X14172563Y-9856936D01*
X14172563Y-9856936D02*
X14163039Y-9837889D01*
X14163039Y-9837889D02*
X14153515Y-9799793D01*
X14153515Y-9799793D02*
X14153515Y-9752174D01*
X14153515Y-9752174D02*
X14163039Y-9714079D01*
X14163039Y-9714079D02*
X14172563Y-9695031D01*
X14172563Y-9695031D02*
X14182086Y-9685508D01*
X14182086Y-9685508D02*
X14201134Y-9675984D01*
X14353515Y-9856936D02*
X14363039Y-9866460D01*
X14363039Y-9866460D02*
X14353515Y-9875984D01*
X14353515Y-9875984D02*
X14343991Y-9866460D01*
X14343991Y-9866460D02*
X14353515Y-9856936D01*
X14353515Y-9856936D02*
X14353515Y-9875984D01*
X14486848Y-9675984D02*
X14505896Y-9675984D01*
X14505896Y-9675984D02*
X14524944Y-9685508D01*
X14524944Y-9685508D02*
X14534467Y-9695031D01*
X14534467Y-9695031D02*
X14543991Y-9714079D01*
X14543991Y-9714079D02*
X14553515Y-9752174D01*
X14553515Y-9752174D02*
X14553515Y-9799793D01*
X14553515Y-9799793D02*
X14543991Y-9837889D01*
X14543991Y-9837889D02*
X14534467Y-9856936D01*
X14534467Y-9856936D02*
X14524944Y-9866460D01*
X14524944Y-9866460D02*
X14505896Y-9875984D01*
X14505896Y-9875984D02*
X14486848Y-9875984D01*
X14486848Y-9875984D02*
X14467801Y-9866460D01*
X14467801Y-9866460D02*
X14458277Y-9856936D01*
X14458277Y-9856936D02*
X14448753Y-9837889D01*
X14448753Y-9837889D02*
X14439229Y-9799793D01*
X14439229Y-9799793D02*
X14439229Y-9752174D01*
X14439229Y-9752174D02*
X14448753Y-9714079D01*
X14448753Y-9714079D02*
X14458277Y-9695031D01*
X14458277Y-9695031D02*
X14467801Y-9685508D01*
X14467801Y-9685508D02*
X14486848Y-9675984D01*
X14629706Y-9695031D02*
X14639229Y-9685508D01*
X14639229Y-9685508D02*
X14658277Y-9675984D01*
X14658277Y-9675984D02*
X14705896Y-9675984D01*
X14705896Y-9675984D02*
X14724944Y-9685508D01*
X14724944Y-9685508D02*
X14734467Y-9695031D01*
X14734467Y-9695031D02*
X14743991Y-9714079D01*
X14743991Y-9714079D02*
X14743991Y-9733127D01*
X14743991Y-9733127D02*
X14734467Y-9761698D01*
X14734467Y-9761698D02*
X14620182Y-9875984D01*
X14620182Y-9875984D02*
X14743991Y-9875984D01*
X14924944Y-9675984D02*
X14829706Y-9675984D01*
X14829706Y-9675984D02*
X14820182Y-9771222D01*
X14820182Y-9771222D02*
X14829706Y-9761698D01*
X14829706Y-9761698D02*
X14848753Y-9752174D01*
X14848753Y-9752174D02*
X14896372Y-9752174D01*
X14896372Y-9752174D02*
X14915420Y-9761698D01*
X14915420Y-9761698D02*
X14924944Y-9771222D01*
X14924944Y-9771222D02*
X14934467Y-9790270D01*
X14934467Y-9790270D02*
X14934467Y-9837889D01*
X14934467Y-9837889D02*
X14924944Y-9856936D01*
X14924944Y-9856936D02*
X14915420Y-9866460D01*
X14915420Y-9866460D02*
X14896372Y-9875984D01*
X14896372Y-9875984D02*
X14848753Y-9875984D01*
X14848753Y-9875984D02*
X14829706Y-9866460D01*
X14829706Y-9866460D02*
X14820182Y-9856936D01*
X15105896Y-9675984D02*
X15067801Y-9675984D01*
X15067801Y-9675984D02*
X15048753Y-9685508D01*
X15048753Y-9685508D02*
X15039229Y-9695031D01*
X15039229Y-9695031D02*
X15020182Y-9723603D01*
X15020182Y-9723603D02*
X15010658Y-9761698D01*
X15010658Y-9761698D02*
X15010658Y-9837889D01*
X15010658Y-9837889D02*
X15020182Y-9856936D01*
X15020182Y-9856936D02*
X15029706Y-9866460D01*
X15029706Y-9866460D02*
X15048753Y-9875984D01*
X15048753Y-9875984D02*
X15086848Y-9875984D01*
X15086848Y-9875984D02*
X15105896Y-9866460D01*
X15105896Y-9866460D02*
X15115420Y-9856936D01*
X15115420Y-9856936D02*
X15124944Y-9837889D01*
X15124944Y-9837889D02*
X15124944Y-9790270D01*
X15124944Y-9790270D02*
X15115420Y-9771222D01*
X15115420Y-9771222D02*
X15105896Y-9761698D01*
X15105896Y-9761698D02*
X15086848Y-9752174D01*
X15086848Y-9752174D02*
X15048753Y-9752174D01*
X15048753Y-9752174D02*
X15029706Y-9761698D01*
X15029706Y-9761698D02*
X15020182Y-9771222D01*
X15020182Y-9771222D02*
X15010658Y-9790270D01*
X15201134Y-9675984D02*
X15201134Y-9714079D01*
X15277325Y-9675984D02*
X15277325Y-9714079D01*
X15572563Y-9952174D02*
X15563039Y-9942650D01*
X15563039Y-9942650D02*
X15543991Y-9914079D01*
X15543991Y-9914079D02*
X15534468Y-9895031D01*
X15534468Y-9895031D02*
X15524944Y-9866460D01*
X15524944Y-9866460D02*
X15515420Y-9818841D01*
X15515420Y-9818841D02*
X15515420Y-9780746D01*
X15515420Y-9780746D02*
X15524944Y-9733127D01*
X15524944Y-9733127D02*
X15534468Y-9704555D01*
X15534468Y-9704555D02*
X15543991Y-9685508D01*
X15543991Y-9685508D02*
X15563039Y-9656936D01*
X15563039Y-9656936D02*
X15572563Y-9647412D01*
X15639229Y-9695031D02*
X15648753Y-9685508D01*
X15648753Y-9685508D02*
X15667801Y-9675984D01*
X15667801Y-9675984D02*
X15715420Y-9675984D01*
X15715420Y-9675984D02*
X15734468Y-9685508D01*
X15734468Y-9685508D02*
X15743991Y-9695031D01*
X15743991Y-9695031D02*
X15753515Y-9714079D01*
X15753515Y-9714079D02*
X15753515Y-9733127D01*
X15753515Y-9733127D02*
X15743991Y-9761698D01*
X15743991Y-9761698D02*
X15629706Y-9875984D01*
X15629706Y-9875984D02*
X15753515Y-9875984D01*
X15991610Y-9875984D02*
X15991610Y-9675984D01*
X16077325Y-9875984D02*
X16077325Y-9771222D01*
X16077325Y-9771222D02*
X16067801Y-9752174D01*
X16067801Y-9752174D02*
X16048753Y-9742650D01*
X16048753Y-9742650D02*
X16020182Y-9742650D01*
X16020182Y-9742650D02*
X16001134Y-9752174D01*
X16001134Y-9752174D02*
X15991610Y-9761698D01*
X16201134Y-9875984D02*
X16182087Y-9866460D01*
X16182087Y-9866460D02*
X16172563Y-9856936D01*
X16172563Y-9856936D02*
X16163039Y-9837889D01*
X16163039Y-9837889D02*
X16163039Y-9780746D01*
X16163039Y-9780746D02*
X16172563Y-9761698D01*
X16172563Y-9761698D02*
X16182087Y-9752174D01*
X16182087Y-9752174D02*
X16201134Y-9742650D01*
X16201134Y-9742650D02*
X16229706Y-9742650D01*
X16229706Y-9742650D02*
X16248753Y-9752174D01*
X16248753Y-9752174D02*
X16258277Y-9761698D01*
X16258277Y-9761698D02*
X16267801Y-9780746D01*
X16267801Y-9780746D02*
X16267801Y-9837889D01*
X16267801Y-9837889D02*
X16258277Y-9856936D01*
X16258277Y-9856936D02*
X16248753Y-9866460D01*
X16248753Y-9866460D02*
X16229706Y-9875984D01*
X16229706Y-9875984D02*
X16201134Y-9875984D01*
X16382087Y-9875984D02*
X16363039Y-9866460D01*
X16363039Y-9866460D02*
X16353515Y-9847412D01*
X16353515Y-9847412D02*
X16353515Y-9675984D01*
X16534468Y-9866460D02*
X16515420Y-9875984D01*
X16515420Y-9875984D02*
X16477325Y-9875984D01*
X16477325Y-9875984D02*
X16458277Y-9866460D01*
X16458277Y-9866460D02*
X16448753Y-9847412D01*
X16448753Y-9847412D02*
X16448753Y-9771222D01*
X16448753Y-9771222D02*
X16458277Y-9752174D01*
X16458277Y-9752174D02*
X16477325Y-9742650D01*
X16477325Y-9742650D02*
X16515420Y-9742650D01*
X16515420Y-9742650D02*
X16534468Y-9752174D01*
X16534468Y-9752174D02*
X16543991Y-9771222D01*
X16543991Y-9771222D02*
X16543991Y-9790270D01*
X16543991Y-9790270D02*
X16448753Y-9809317D01*
X16620182Y-9866460D02*
X16639230Y-9875984D01*
X16639230Y-9875984D02*
X16677325Y-9875984D01*
X16677325Y-9875984D02*
X16696372Y-9866460D01*
X16696372Y-9866460D02*
X16705896Y-9847412D01*
X16705896Y-9847412D02*
X16705896Y-9837889D01*
X16705896Y-9837889D02*
X16696372Y-9818841D01*
X16696372Y-9818841D02*
X16677325Y-9809317D01*
X16677325Y-9809317D02*
X16648753Y-9809317D01*
X16648753Y-9809317D02*
X16629706Y-9799793D01*
X16629706Y-9799793D02*
X16620182Y-9780746D01*
X16620182Y-9780746D02*
X16620182Y-9771222D01*
X16620182Y-9771222D02*
X16629706Y-9752174D01*
X16629706Y-9752174D02*
X16648753Y-9742650D01*
X16648753Y-9742650D02*
X16677325Y-9742650D01*
X16677325Y-9742650D02*
X16696372Y-9752174D01*
X16772563Y-9952174D02*
X16782087Y-9942650D01*
X16782087Y-9942650D02*
X16801134Y-9914079D01*
X16801134Y-9914079D02*
X16810658Y-9895031D01*
X16810658Y-9895031D02*
X16820182Y-9866460D01*
X16820182Y-9866460D02*
X16829706Y-9818841D01*
X16829706Y-9818841D02*
X16829706Y-9780746D01*
X16829706Y-9780746D02*
X16820182Y-9733127D01*
X16820182Y-9733127D02*
X16810658Y-9704555D01*
X16810658Y-9704555D02*
X16801134Y-9685508D01*
X16801134Y-9685508D02*
X16782087Y-9656936D01*
X16782087Y-9656936D02*
X16772563Y-9647412D01*
X17134468Y-9952174D02*
X17124944Y-9942650D01*
X17124944Y-9942650D02*
X17105896Y-9914079D01*
X17105896Y-9914079D02*
X17096373Y-9895031D01*
X17096373Y-9895031D02*
X17086849Y-9866460D01*
X17086849Y-9866460D02*
X17077325Y-9818841D01*
X17077325Y-9818841D02*
X17077325Y-9780746D01*
X17077325Y-9780746D02*
X17086849Y-9733127D01*
X17086849Y-9733127D02*
X17096373Y-9704555D01*
X17096373Y-9704555D02*
X17105896Y-9685508D01*
X17105896Y-9685508D02*
X17124944Y-9656936D01*
X17124944Y-9656936D02*
X17134468Y-9647412D01*
X17210658Y-9742650D02*
X17210658Y-9875984D01*
X17210658Y-9761698D02*
X17220182Y-9752174D01*
X17220182Y-9752174D02*
X17239230Y-9742650D01*
X17239230Y-9742650D02*
X17267801Y-9742650D01*
X17267801Y-9742650D02*
X17286849Y-9752174D01*
X17286849Y-9752174D02*
X17296373Y-9771222D01*
X17296373Y-9771222D02*
X17296373Y-9875984D01*
X17420182Y-9875984D02*
X17401134Y-9866460D01*
X17401134Y-9866460D02*
X17391611Y-9856936D01*
X17391611Y-9856936D02*
X17382087Y-9837889D01*
X17382087Y-9837889D02*
X17382087Y-9780746D01*
X17382087Y-9780746D02*
X17391611Y-9761698D01*
X17391611Y-9761698D02*
X17401134Y-9752174D01*
X17401134Y-9752174D02*
X17420182Y-9742650D01*
X17420182Y-9742650D02*
X17448754Y-9742650D01*
X17448754Y-9742650D02*
X17467801Y-9752174D01*
X17467801Y-9752174D02*
X17477325Y-9761698D01*
X17477325Y-9761698D02*
X17486849Y-9780746D01*
X17486849Y-9780746D02*
X17486849Y-9837889D01*
X17486849Y-9837889D02*
X17477325Y-9856936D01*
X17477325Y-9856936D02*
X17467801Y-9866460D01*
X17467801Y-9866460D02*
X17448754Y-9875984D01*
X17448754Y-9875984D02*
X17420182Y-9875984D01*
X17543992Y-9742650D02*
X17620182Y-9742650D01*
X17572563Y-9675984D02*
X17572563Y-9847412D01*
X17572563Y-9847412D02*
X17582087Y-9866460D01*
X17582087Y-9866460D02*
X17601134Y-9875984D01*
X17601134Y-9875984D02*
X17620182Y-9875984D01*
X17839230Y-9742650D02*
X17839230Y-9942650D01*
X17839230Y-9752174D02*
X17858277Y-9742650D01*
X17858277Y-9742650D02*
X17896373Y-9742650D01*
X17896373Y-9742650D02*
X17915420Y-9752174D01*
X17915420Y-9752174D02*
X17924944Y-9761698D01*
X17924944Y-9761698D02*
X17934468Y-9780746D01*
X17934468Y-9780746D02*
X17934468Y-9837889D01*
X17934468Y-9837889D02*
X17924944Y-9856936D01*
X17924944Y-9856936D02*
X17915420Y-9866460D01*
X17915420Y-9866460D02*
X17896373Y-9875984D01*
X17896373Y-9875984D02*
X17858277Y-9875984D01*
X17858277Y-9875984D02*
X17839230Y-9866460D01*
X18048754Y-9875984D02*
X18029706Y-9866460D01*
X18029706Y-9866460D02*
X18020182Y-9847412D01*
X18020182Y-9847412D02*
X18020182Y-9675984D01*
X18210658Y-9875984D02*
X18210658Y-9771222D01*
X18210658Y-9771222D02*
X18201135Y-9752174D01*
X18201135Y-9752174D02*
X18182087Y-9742650D01*
X18182087Y-9742650D02*
X18143992Y-9742650D01*
X18143992Y-9742650D02*
X18124944Y-9752174D01*
X18210658Y-9866460D02*
X18191611Y-9875984D01*
X18191611Y-9875984D02*
X18143992Y-9875984D01*
X18143992Y-9875984D02*
X18124944Y-9866460D01*
X18124944Y-9866460D02*
X18115420Y-9847412D01*
X18115420Y-9847412D02*
X18115420Y-9828365D01*
X18115420Y-9828365D02*
X18124944Y-9809317D01*
X18124944Y-9809317D02*
X18143992Y-9799793D01*
X18143992Y-9799793D02*
X18191611Y-9799793D01*
X18191611Y-9799793D02*
X18210658Y-9790270D01*
X18277325Y-9742650D02*
X18353515Y-9742650D01*
X18305896Y-9675984D02*
X18305896Y-9847412D01*
X18305896Y-9847412D02*
X18315420Y-9866460D01*
X18315420Y-9866460D02*
X18334468Y-9875984D01*
X18334468Y-9875984D02*
X18353515Y-9875984D01*
X18496373Y-9866460D02*
X18477325Y-9875984D01*
X18477325Y-9875984D02*
X18439230Y-9875984D01*
X18439230Y-9875984D02*
X18420182Y-9866460D01*
X18420182Y-9866460D02*
X18410658Y-9847412D01*
X18410658Y-9847412D02*
X18410658Y-9771222D01*
X18410658Y-9771222D02*
X18420182Y-9752174D01*
X18420182Y-9752174D02*
X18439230Y-9742650D01*
X18439230Y-9742650D02*
X18477325Y-9742650D01*
X18477325Y-9742650D02*
X18496373Y-9752174D01*
X18496373Y-9752174D02*
X18505896Y-9771222D01*
X18505896Y-9771222D02*
X18505896Y-9790270D01*
X18505896Y-9790270D02*
X18410658Y-9809317D01*
X18677325Y-9875984D02*
X18677325Y-9675984D01*
X18677325Y-9866460D02*
X18658277Y-9875984D01*
X18658277Y-9875984D02*
X18620182Y-9875984D01*
X18620182Y-9875984D02*
X18601135Y-9866460D01*
X18601135Y-9866460D02*
X18591611Y-9856936D01*
X18591611Y-9856936D02*
X18582087Y-9837889D01*
X18582087Y-9837889D02*
X18582087Y-9780746D01*
X18582087Y-9780746D02*
X18591611Y-9761698D01*
X18591611Y-9761698D02*
X18601135Y-9752174D01*
X18601135Y-9752174D02*
X18620182Y-9742650D01*
X18620182Y-9742650D02*
X18658277Y-9742650D01*
X18658277Y-9742650D02*
X18677325Y-9752174D01*
X18753516Y-9952174D02*
X18763039Y-9942650D01*
X18763039Y-9942650D02*
X18782087Y-9914079D01*
X18782087Y-9914079D02*
X18791611Y-9895031D01*
X18791611Y-9895031D02*
X18801135Y-9866460D01*
X18801135Y-9866460D02*
X18810658Y-9818841D01*
X18810658Y-9818841D02*
X18810658Y-9780746D01*
X18810658Y-9780746D02*
X18801135Y-9733127D01*
X18801135Y-9733127D02*
X18791611Y-9704555D01*
X18791611Y-9704555D02*
X18782087Y-9685508D01*
X18782087Y-9685508D02*
X18763039Y-9656936D01*
X18763039Y-9656936D02*
X18753516Y-9647412D01*
M02*
