M48
; DRILL file {KiCad 9.0.7} date 2026-09-25T08:11:08+0200
; FORMAT={-:-/ absolute / metric / decimal}
; #@! TF.CreationDate,2026-09-25T08:11:08+02:00
; #@! TF.GenerationSoftware,Kicad,Pcbnew,9.0.7
; #@! TF.FileFunction,MixedPlating,1,2
FMAT,2
METRIC
; #@! TA.AperFunction,Plated,PTH,ViaDrill
T1C0.300
; #@! TA.AperFunction,Plated,PTH,ComponentDrill
T2C0.600
; #@! TA.AperFunction,Plated,PTH,ComponentDrill
T3C1.000
; #@! TA.AperFunction,NonPlated,NPTH,ComponentDrill
T4C0.650
%
G90
G05
T1
X123.0Y-58.5
X124.5Y-77.5
X125.5Y-75.0
X126.0Y-70.0
X126.5Y-65.0
X127.5Y-61.5
X127.5Y-75.0
X127.5Y-77.5
X129.0Y-60.5
X133.95Y-57.55
X134.0Y-59.5
X137.24Y-57.26
X137.5Y-58.5
X137.5Y-71.0
X137.5Y-72.5
T3
X133.42Y-81.5
X133.46Y-77.5
X135.96Y-81.5
X136.0Y-77.5
X138.5Y-81.5
X138.54Y-77.5
T4
X123.11Y-77.395
X128.89Y-77.395
T2
X121.68Y-77.445G85X121.68Y-76.345
G05
X121.68Y-81.475G85X121.68Y-80.675
G05
X130.32Y-77.445G85X130.32Y-76.345
G05
X130.32Y-81.475G85X130.32Y-80.675
G05
M30
