%TF.GenerationSoftware,KiCad,Pcbnew,9.0.7*%
%TF.CreationDate,2026-09-25T08:11:05+02:00*%
%TF.ProjectId,esp32-c3-led,65737033-322d-4633-932d-6c65642e6b69,rev?*%
%TF.SameCoordinates,Original*%
%TF.FileFunction,Copper,L2,Bot*%
%TF.FilePolarity,Positive*%
%FSLAX46Y46*%
G04 Gerber Fmt 4.6, Leading zero omitted, Abs format (unit mm)*
G04 Created by KiCad (PCBNEW 9.0.7) date 2026-09-25 08:11:05*
%MOMM*%
%LPD*%
G01*
G04 APERTURE LIST*
G04 Aperture macros list*
%AMRoundRect*
0 Rectangle with rounded corners*
0 $1 Rounding radius*
0 $2 $3 $4 $5 $6 $7 $8 $9 X,Y pos of 4 corners*
0 Add a 4 corners polygon primitive as box body*
4,1,4,$2,$3,$4,$5,$6,$7,$8,$9,$2,$3,0*
0 Add four circle primitives for the rounded corners*
1,1,$1+$1,$2,$3*
1,1,$1+$1,$4,$5*
1,1,$1+$1,$6,$7*
1,1,$1+$1,$8,$9*
0 Add four rect primitives between the rounded corners*
20,1,$1+$1,$2,$3,$4,$5,0*
20,1,$1+$1,$4,$5,$6,$7,0*
20,1,$1+$1,$6,$7,$8,$9,0*
20,1,$1+$1,$8,$9,$2,$3,0*%
G04 Aperture macros list end*
%TA.AperFunction,ComponentPad*%
%ADD10R,1.700000X1.700000*%
%TD*%
%TA.AperFunction,ComponentPad*%
%ADD11C,1.700000*%
%TD*%
%TA.AperFunction,SMDPad,CuDef*%
%ADD12RoundRect,0.150000X0.150000X0.425000X-0.150000X0.425000X-0.150000X-0.425000X0.150000X-0.425000X0*%
%TD*%
%TA.AperFunction,SMDPad,CuDef*%
%ADD13RoundRect,0.075000X0.075000X0.500000X-0.075000X0.500000X-0.075000X-0.500000X0.075000X-0.500000X0*%
%TD*%
%TA.AperFunction,HeatsinkPad*%
%ADD14O,1.000000X1.800000*%
%TD*%
%TA.AperFunction,HeatsinkPad*%
%ADD15O,1.000000X2.100000*%
%TD*%
%TA.AperFunction,SMDPad,CuDef*%
%ADD16R,1.500000X0.900000*%
%TD*%
%TA.AperFunction,SMDPad,CuDef*%
%ADD17R,0.800000X0.800000*%
%TD*%
%TA.AperFunction,ViaPad*%
%ADD18C,0.600000*%
%TD*%
%TA.AperFunction,Conductor*%
%ADD19C,0.200000*%
%TD*%
%TA.AperFunction,Conductor*%
%ADD20C,0.500000*%
%TD*%
G04 APERTURE END LIST*
D10*
%TO.P,J1,1,Pin_1*%
%TO.N,+5V*%
X133420000Y-81500000D03*
D11*
%TO.P,J1,2,Pin_2*%
%TO.N,Net-(J1-Pad2)*%
X135960000Y-81500000D03*
%TO.P,J1,3,Pin_3*%
%TO.N,GND*%
X138500000Y-81500000D03*
%TD*%
D12*
%TO.P,J4,A1,GND*%
%TO.N,GND*%
X129200000Y-76320000D03*
%TO.P,J4,A4,VBUS*%
%TO.N,+5V*%
X128400000Y-76320000D03*
D13*
%TO.P,J4,A5,CC1*%
%TO.N,CC1*%
X127250000Y-76320000D03*
%TO.P,J4,A6,D+*%
%TO.N,D+*%
X126250000Y-76320000D03*
%TO.P,J4,A7,D-*%
%TO.N,D-*%
X125750000Y-76320000D03*
%TO.P,J4,A8,SBU1*%
%TO.N,unconnected-(J4-SBU1-PadA8)*%
X124750000Y-76320000D03*
D12*
%TO.P,J4,A9,VBUS*%
%TO.N,+5V*%
X123600000Y-76320000D03*
%TO.P,J4,A12,GND*%
%TO.N,GND*%
X122800000Y-76320000D03*
%TO.P,J4,B1,GND*%
X122800000Y-76320000D03*
%TO.P,J4,B4,VBUS*%
%TO.N,+5V*%
X123600000Y-76320000D03*
D13*
%TO.P,J4,B5,CC2*%
%TO.N,CC2*%
X124250000Y-76320000D03*
%TO.P,J4,B6,D+*%
%TO.N,D+*%
X125250000Y-76320000D03*
%TO.P,J4,B7,D-*%
%TO.N,D-*%
X126750000Y-76320000D03*
%TO.P,J4,B8,SBU2*%
%TO.N,unconnected-(J4-SBU2-PadB8)*%
X127750000Y-76320000D03*
D12*
%TO.P,J4,B9,VBUS*%
%TO.N,+5V*%
X128400000Y-76320000D03*
%TO.P,J4,B12,GND*%
%TO.N,GND*%
X129200000Y-76320000D03*
D14*
%TO.P,J4,S1,SHIELD*%
X130320000Y-81075000D03*
D15*
X130320000Y-76895000D03*
D14*
X121680000Y-81075000D03*
D15*
X121680000Y-76895000D03*
%TD*%
D16*
%TO.P,U1,1,GND*%
%TO.N,GND*%
X139000000Y-55990000D03*
%TO.P,U1,2,3V3*%
%TO.N,+3V3*%
X139000000Y-57260000D03*
%TO.P,U1,3,EN/CHIP_PU*%
%TO.N,ESP_EN*%
X139000000Y-58530000D03*
%TO.P,U1,4,MTMS/GPIO4/ADC1_CH4*%
%TO.N,Net-(J1-Pad2)*%
X139000000Y-59800000D03*
%TO.P,U1,5,MTDI/GPIO5/ADC1_CH5*%
%TO.N,Net-(J2-Pad2)*%
X139000000Y-61070000D03*
%TO.P,U1,6,MTCK/GPIO6/ADC1_CH6*%
%TO.N,unconnected-(U1-MTCK{slash}GPIO6{slash}ADC1_CH6-Pad6)*%
X139000000Y-62340000D03*
%TO.P,U1,7,MTDO/GPIO7*%
%TO.N,unconnected-(U1-MTDO{slash}GPIO7-Pad7)*%
X139000000Y-63610000D03*
%TO.P,U1,8,GPIO0/ADC1_CH0/XTAL_32K_P*%
%TO.N,unconnected-(U1-GPIO0{slash}ADC1_CH0{slash}XTAL_32K_P-Pad8)*%
X139000000Y-64880000D03*
%TO.P,U1,9,GPIO1/ADC1_CH1/XTAL_32K_N*%
%TO.N,unconnected-(U1-GPIO1{slash}ADC1_CH1{slash}XTAL_32K_N-Pad9)*%
X139000000Y-66150000D03*
%TO.P,U1,10,GPIO8*%
%TO.N,unconnected-(U1-GPIO8-Pad10)*%
X139000000Y-67420000D03*
%TO.P,U1,11,GPIO10*%
%TO.N,unconnected-(U1-GPIO10-Pad11)*%
X139000000Y-68690000D03*
%TO.P,U1,12,GPIO11*%
%TO.N,unconnected-(U1-GPIO11-Pad12)*%
X139000000Y-69960000D03*
%TO.P,U1,13,GPIO12/USB_D-*%
%TO.N,USB_D-*%
X139000000Y-71230000D03*
%TO.P,U1,14,GPIO13/USB_D+*%
%TO.N,USB_D+*%
X139000000Y-72500000D03*
%TO.P,U1,15,GPIO9*%
%TO.N,unconnected-(U1-GPIO9-Pad15)*%
X121500000Y-72500000D03*
%TO.P,U1,16,GPIO18*%
%TO.N,unconnected-(U1-GPIO18-Pad16)*%
X121500000Y-71230000D03*
%TO.P,U1,17,GPIO19*%
%TO.N,unconnected-(U1-GPIO19-Pad17)*%
X121500000Y-69960000D03*
%TO.P,U1,18,GPIO20*%
%TO.N,unconnected-(U1-GPIO20-Pad18)*%
X121500000Y-68690000D03*
%TO.P,U1,19,GPIO21*%
%TO.N,unconnected-(U1-GPIO21-Pad19)*%
X121500000Y-67420000D03*
%TO.P,U1,20,GPIO22*%
%TO.N,unconnected-(U1-GPIO22-Pad20)*%
X121500000Y-66150000D03*
%TO.P,U1,21,GPIO23*%
%TO.N,unconnected-(U1-GPIO23-Pad21)*%
X121500000Y-64880000D03*
%TO.P,U1,22,NC*%
%TO.N,unconnected-(U1-NC-Pad22)*%
X121500000Y-63610000D03*
%TO.P,U1,23,GPIO15*%
%TO.N,unconnected-(U1-GPIO15-Pad23)*%
X121500000Y-62340000D03*
%TO.P,U1,24,U0RXD/GPIO17*%
%TO.N,unconnected-(U1-U0RXD{slash}GPIO17-Pad24)*%
X121500000Y-61070000D03*
%TO.P,U1,25,U0TXD/GPIO16*%
%TO.N,unconnected-(U1-U0TXD{slash}GPIO16-Pad25)*%
X121500000Y-59800000D03*
%TO.P,U1,26,GPIO3/ADC1_CH3*%
%TO.N,GPIO3*%
X121500000Y-58530000D03*
%TO.P,U1,27,GPIO2/ADC1_CH2*%
%TO.N,unconnected-(U1-GPIO2{slash}ADC1_CH2-Pad27)*%
X121500000Y-57260000D03*
%TO.P,U1,28,GND*%
%TO.N,GND*%
X121500000Y-55990000D03*
D17*
%TO.P,U1,29,GND*%
X133005000Y-62960000D03*
X133005000Y-61710000D03*
X133005000Y-60460000D03*
X131755000Y-62960000D03*
X131755000Y-61710000D03*
X131755000Y-60460000D03*
X130505000Y-62960000D03*
X130505000Y-61710000D03*
X130505000Y-60460000D03*
%TD*%
D10*
%TO.P,J2,1,Pin_1*%
%TO.N,+5V*%
X133460000Y-77500000D03*
D11*
%TO.P,J2,2,Pin_2*%
%TO.N,Net-(J2-Pad2)*%
X136000000Y-77500000D03*
%TO.P,J2,3,Pin_3*%
%TO.N,GND*%
X138540000Y-77500000D03*
%TD*%
D18*
%TO.N,GND*%
X133950000Y-57550000D03*
X134000000Y-59500000D03*
X129000000Y-60500000D03*
%TO.N,+3V3*%
X126500000Y-65000000D03*
X137240000Y-57260000D03*
X127500000Y-61500000D03*
%TO.N,+5V*%
X126000000Y-70000000D03*
%TO.N,ESP_EN*%
X137500000Y-58500000D03*
%TO.N,D-*%
X127500000Y-75000000D03*
%TO.N,CC1*%
X127500000Y-77500000D03*
%TO.N,D+*%
X125500000Y-75000000D03*
%TO.N,CC2*%
X124500000Y-77500000D03*
%TO.N,USB_D+*%
X137500000Y-72500000D03*
%TO.N,GPIO3*%
X123000000Y-58500000D03*
%TO.N,USB_D-*%
X137500000Y-71000000D03*
%TD*%
D19*
%TO.N,GND*%
X122800000Y-76320000D02*
X122255000Y-76320000D01*
X129745000Y-76320000D02*
X130320000Y-76895000D01*
X122255000Y-76320000D02*
X121680000Y-76895000D01*
X130320000Y-76895000D02*
X130320000Y-77145000D01*
X122990000Y-55990000D02*
X123000000Y-56000000D01*
X133950000Y-59450000D02*
X134000000Y-59500000D01*
X138540000Y-81460000D02*
X138500000Y-81500000D01*
X133005000Y-60460000D02*
X133040000Y-60460000D01*
X129200000Y-76320000D02*
X129745000Y-76320000D01*
%TO.N,+3V3*%
X127500000Y-61500000D02*
X126500000Y-62500000D01*
X137240000Y-57260000D02*
X139000000Y-57260000D01*
X126500000Y-62500000D02*
X126500000Y-65000000D01*
D20*
%TO.N,+5V*%
X132000000Y-74500000D02*
X133460000Y-75960000D01*
X126000000Y-74000000D02*
X128000000Y-74000000D01*
X124500000Y-74000000D02*
X126000000Y-74000000D01*
X133460000Y-75960000D02*
X133460000Y-77500000D01*
D19*
X128400000Y-75100000D02*
X128500000Y-75000000D01*
D20*
X129000000Y-74500000D02*
X132000000Y-74500000D01*
X128400000Y-76320000D02*
X128400000Y-75100000D01*
X123600000Y-76320000D02*
X123600000Y-74900000D01*
X128500000Y-75000000D02*
X129000000Y-74500000D01*
X128500000Y-74500000D02*
X128500000Y-75000000D01*
X128000000Y-74000000D02*
X128500000Y-74500000D01*
D19*
X128400000Y-76320000D02*
X128500000Y-76220000D01*
D20*
X126000000Y-70000000D02*
X126000000Y-74000000D01*
X123600000Y-74900000D02*
X124500000Y-74000000D01*
D19*
%TO.N,ESP_EN*%
X139000000Y-58530000D02*
X137530000Y-58530000D01*
X137530000Y-58530000D02*
X137500000Y-58500000D01*
%TO.N,D-*%
X126750000Y-75250000D02*
X127000000Y-75000000D01*
X126482824Y-75444000D02*
X126017176Y-75444000D01*
X126750000Y-75711176D02*
X126482824Y-75444000D01*
X126017176Y-75444000D02*
X125750000Y-75711176D01*
X126750000Y-76320000D02*
X126750000Y-75250000D01*
X127000000Y-75000000D02*
X127500000Y-75000000D01*
X125750000Y-75711176D02*
X125750000Y-76320000D01*
X126750000Y-76320000D02*
X126750000Y-75711176D01*
%TO.N,Net-(J1-Pad2)*%
X138050000Y-59800000D02*
X134849000Y-63001000D01*
X134849000Y-63001000D02*
X134849000Y-80389000D01*
X134849000Y-80389000D02*
X135960000Y-81500000D01*
X139000000Y-59800000D02*
X138050000Y-59800000D01*
%TO.N,CC1*%
X127250000Y-77250000D02*
X127500000Y-77500000D01*
X127250000Y-76320000D02*
X127250000Y-77250000D01*
%TO.N,Net-(J2-Pad2)*%
X138468000Y-61070000D02*
X136000000Y-63538000D01*
X136000000Y-63538000D02*
X136000000Y-77500000D01*
X139000000Y-61070000D02*
X138468000Y-61070000D01*
%TO.N,D+*%
X125982824Y-77196000D02*
X126250000Y-76928824D01*
X125517176Y-77196000D02*
X125982824Y-77196000D01*
X125500000Y-75000000D02*
X125250000Y-75250000D01*
X125250000Y-75250000D02*
X125250000Y-76320000D01*
X125250000Y-76928824D02*
X125517176Y-77196000D01*
X126250000Y-76928824D02*
X126250000Y-76320000D01*
X125250000Y-76320000D02*
X125250000Y-76928824D01*
%TO.N,CC2*%
X124250000Y-77250000D02*
X124500000Y-77500000D01*
X124250000Y-76320000D02*
X124250000Y-77250000D01*
%TO.N,USB_D+*%
X139000000Y-72500000D02*
X137500000Y-72500000D01*
%TO.N,GPIO3*%
X121500000Y-58530000D02*
X122970000Y-58530000D01*
X122970000Y-58530000D02*
X123000000Y-58500000D01*
%TO.N,USB_D-*%
X139000000Y-71230000D02*
X137730000Y-71230000D01*
X137730000Y-71230000D02*
X137500000Y-71000000D01*
%TD*%
%TA.AperFunction,Conductor*%
%TO.N,GND*%
G36*
X131704809Y-75270185D02*
G01*
X131725451Y-75286819D01*
X132433106Y-75994474D01*
X132466591Y-76055797D01*
X132461607Y-76125489D01*
X132419735Y-76181422D01*
X132388761Y-76198336D01*
X132367672Y-76206202D01*
X132367664Y-76206206D01*
X132252455Y-76292452D01*
X132252452Y-76292455D01*
X132166206Y-76407664D01*
X132166202Y-76407671D01*
X132115908Y-76542517D01*
X132109501Y-76602116D01*
X132109500Y-76602135D01*
X132109500Y-78397870D01*
X132109501Y-78397876D01*
X132115908Y-78457483D01*
X132166202Y-78592328D01*
X132166206Y-78592335D01*
X132252452Y-78707544D01*
X132252455Y-78707547D01*
X132367664Y-78793793D01*
X132367671Y-78793797D01*
X132502517Y-78844091D01*
X132502516Y-78844091D01*
X132508767Y-78844763D01*
X132562127Y-78850500D01*
X134124500Y-78850499D01*
X134191539Y-78870184D01*
X134237294Y-78922987D01*
X134248500Y-78974499D01*
X134248500Y-80025500D01*
X134228815Y-80092539D01*
X134176011Y-80138294D01*
X134124500Y-80149500D01*
X132522129Y-80149500D01*
X132522123Y-80149501D01*
X132462516Y-80155908D01*
X132327671Y-80206202D01*
X132327664Y-80206206D01*
X132212455Y-80292452D01*
X132212452Y-80292455D01*
X132126206Y-80407664D01*
X132126202Y-80407671D01*
X132075908Y-80542517D01*
X132069501Y-80602116D01*
X132069500Y-80602135D01*
X132069500Y-82397870D01*
X132069501Y-82397876D01*
X132075908Y-82457483D01*
X132126202Y-82592328D01*
X132126206Y-82592335D01*
X132212452Y-82707544D01*
X132212455Y-82707547D01*
X132304208Y-82776234D01*
X132346079Y-82832168D01*
X132351063Y-82901859D01*
X132317577Y-82963182D01*
X132256254Y-82996666D01*
X132229897Y-82999500D01*
X120624500Y-82999500D01*
X120557461Y-82979815D01*
X120511706Y-82927011D01*
X120500500Y-82875500D01*
X120500500Y-81863952D01*
X120520185Y-81796913D01*
X120572989Y-81751158D01*
X120642147Y-81741214D01*
X120705703Y-81770239D01*
X120739061Y-81816500D01*
X120793807Y-81948671D01*
X120793814Y-81948684D01*
X120903248Y-82112462D01*
X120903251Y-82112466D01*
X121042533Y-82251748D01*
X121042537Y-82251751D01*
X121206315Y-82361185D01*
X121206328Y-82361192D01*
X121388308Y-82436569D01*
X121430000Y-82444862D01*
X121430000Y-81641988D01*
X121439940Y-81659205D01*
X121495795Y-81715060D01*
X121564204Y-81754556D01*
X121640504Y-81775000D01*
X121719496Y-81775000D01*
X121795796Y-81754556D01*
X121864205Y-81715060D01*
X121920060Y-81659205D01*
X121930000Y-81641988D01*
X121930000Y-82444862D01*
X121971690Y-82436569D01*
X121971692Y-82436569D01*
X122153671Y-82361192D01*
X122153684Y-82361185D01*
X122317462Y-82251751D01*
X122317466Y-82251748D01*
X122456748Y-82112466D01*
X122456751Y-82112462D01*
X122566185Y-81948684D01*
X122566192Y-81948671D01*
X122641569Y-81766693D01*
X122641572Y-81766681D01*
X122679999Y-81573495D01*
X122680000Y-81573492D01*
X122680000Y-81325000D01*
X121980000Y-81325000D01*
X121980000Y-80825000D01*
X122680000Y-80825000D01*
X122680000Y-80576508D01*
X122679999Y-80576504D01*
X129320000Y-80576504D01*
X129320000Y-80825000D01*
X130020000Y-80825000D01*
X130020000Y-81325000D01*
X129320000Y-81325000D01*
X129320000Y-81573495D01*
X129358427Y-81766681D01*
X129358430Y-81766693D01*
X129433807Y-81948671D01*
X129433814Y-81948684D01*
X129543248Y-82112462D01*
X129543251Y-82112466D01*
X129682533Y-82251748D01*
X129682537Y-82251751D01*
X129846315Y-82361185D01*
X129846328Y-82361192D01*
X130028308Y-82436569D01*
X130070000Y-82444862D01*
X130070000Y-81641988D01*
X130079940Y-81659205D01*
X130135795Y-81715060D01*
X130204204Y-81754556D01*
X130280504Y-81775000D01*
X130359496Y-81775000D01*
X130435796Y-81754556D01*
X130504205Y-81715060D01*
X130560060Y-81659205D01*
X130570000Y-81641988D01*
X130570000Y-82444862D01*
X130611690Y-82436569D01*
X130611692Y-82436569D01*
X130793671Y-82361192D01*
X130793684Y-82361185D01*
X130957462Y-82251751D01*
X130957466Y-82251748D01*
X131096748Y-82112466D01*
X131096751Y-82112462D01*
X131206185Y-81948684D01*
X131206192Y-81948671D01*
X131281569Y-81766693D01*
X131281572Y-81766681D01*
X131319999Y-81573495D01*
X131320000Y-81573492D01*
X131320000Y-81325000D01*
X130620000Y-81325000D01*
X130620000Y-80825000D01*
X131320000Y-80825000D01*
X131320000Y-80576508D01*
X131319999Y-80576504D01*
X131281572Y-80383318D01*
X131281569Y-80383306D01*
X131206192Y-80201328D01*
X131206185Y-80201315D01*
X131096751Y-80037537D01*
X131096748Y-80037533D01*
X130957466Y-79898251D01*
X130957462Y-79898248D01*
X130793684Y-79788814D01*
X130793671Y-79788807D01*
X130611691Y-79713429D01*
X130611683Y-79713427D01*
X130570000Y-79705135D01*
X130570000Y-80508011D01*
X130560060Y-80490795D01*
X130504205Y-80434940D01*
X130435796Y-80395444D01*
X130359496Y-80375000D01*
X130280504Y-80375000D01*
X130204204Y-80395444D01*
X130135795Y-80434940D01*
X130079940Y-80490795D01*
X130070000Y-80508011D01*
X130070000Y-79705136D01*
X130069999Y-79705135D01*
X130028316Y-79713427D01*
X130028308Y-79713429D01*
X129846328Y-79788807D01*
X129846315Y-79788814D01*
X129682537Y-79898248D01*
X129682533Y-79898251D01*
X129543251Y-80037533D01*
X129543248Y-80037537D01*
X129433814Y-80201315D01*
X129433807Y-80201328D01*
X129358430Y-80383306D01*
X129358427Y-80383318D01*
X129320000Y-80576504D01*
X122679999Y-80576504D01*
X122641572Y-80383318D01*
X122641569Y-80383306D01*
X122566192Y-80201328D01*
X122566185Y-80201315D01*
X122456751Y-80037537D01*
X122456748Y-80037533D01*
X122317466Y-79898251D01*
X122317462Y-79898248D01*
X122153684Y-79788814D01*
X122153671Y-79788807D01*
X121971691Y-79713429D01*
X121971683Y-79713427D01*
X121930000Y-79705135D01*
X121930000Y-80508011D01*
X121920060Y-80490795D01*
X121864205Y-80434940D01*
X121795796Y-80395444D01*
X121719496Y-80375000D01*
X121640504Y-80375000D01*
X121564204Y-80395444D01*
X121495795Y-80434940D01*
X121439940Y-80490795D01*
X121430000Y-80508011D01*
X121430000Y-79705136D01*
X121429999Y-79705135D01*
X121388316Y-79713427D01*
X121388308Y-79713429D01*
X121206328Y-79788807D01*
X121206315Y-79788814D01*
X121042537Y-79898248D01*
X121042533Y-79898251D01*
X120903251Y-80037533D01*
X120903248Y-80037537D01*
X120793814Y-80201315D01*
X120793809Y-80201324D01*
X120739061Y-80333500D01*
X120695220Y-80387903D01*
X120628926Y-80409968D01*
X120561227Y-80392689D01*
X120513616Y-80341552D01*
X120500500Y-80286047D01*
X120500500Y-77833952D01*
X120520185Y-77766913D01*
X120572989Y-77721158D01*
X120642147Y-77711214D01*
X120705703Y-77740239D01*
X120739061Y-77786500D01*
X120793807Y-77918671D01*
X120793814Y-77918684D01*
X120903248Y-78082462D01*
X120903251Y-78082466D01*
X121042533Y-78221748D01*
X121042537Y-78221751D01*
X121206315Y-78331185D01*
X121206328Y-78331192D01*
X121388308Y-78406569D01*
X121430000Y-78414862D01*
X121430000Y-77611988D01*
X121439940Y-77629205D01*
X121495795Y-77685060D01*
X121564204Y-77724556D01*
X121640504Y-77745000D01*
X121719496Y-77745000D01*
X121795796Y-77724556D01*
X121864205Y-77685060D01*
X121920060Y-77629205D01*
X121930000Y-77611988D01*
X121930000Y-78414862D01*
X121971690Y-78406569D01*
X121971692Y-78406569D01*
X122153671Y-78331192D01*
X122153684Y-78331185D01*
X122317462Y-78221751D01*
X122317466Y-78221748D01*
X122456748Y-78082466D01*
X122456751Y-78082462D01*
X122566185Y-77918684D01*
X122566186Y-77918682D01*
X122570129Y-77909163D01*
X122613968Y-77854757D01*
X122680261Y-77832689D01*
X122747961Y-77849965D01*
X122753400Y-77853647D01*
X122756634Y-77855514D01*
X122756635Y-77855515D01*
X122887865Y-77931281D01*
X123034234Y-77970500D01*
X123034236Y-77970500D01*
X123185764Y-77970500D01*
X123185766Y-77970500D01*
X123332135Y-77931281D01*
X123463365Y-77855515D01*
X123556607Y-77762272D01*
X123617926Y-77728790D01*
X123687618Y-77733774D01*
X123743552Y-77775645D01*
X123758846Y-77802504D01*
X123790602Y-77879172D01*
X123790609Y-77879185D01*
X123878210Y-78010288D01*
X123878213Y-78010292D01*
X123989707Y-78121786D01*
X123989711Y-78121789D01*
X124120814Y-78209390D01*
X124120827Y-78209397D01*
X124247138Y-78261716D01*
X124266503Y-78269737D01*
X124421153Y-78300499D01*
X124421156Y-78300500D01*
X124421158Y-78300500D01*
X124578844Y-78300500D01*
X124578845Y-78300499D01*
X124733497Y-78269737D01*
X124879179Y-78209394D01*
X125010289Y-78121789D01*
X125121789Y-78010289D01*
X125209394Y-77879179D01*
X125221454Y-77850061D01*
X125265290Y-77795661D01*
X125331584Y-77773594D01*
X125368105Y-77777740D01*
X125438119Y-77796501D01*
X125438121Y-77796501D01*
X125603829Y-77796501D01*
X125603845Y-77796500D01*
X125896155Y-77796500D01*
X125896171Y-77796501D01*
X125903767Y-77796501D01*
X126061878Y-77796501D01*
X126061881Y-77796501D01*
X126214609Y-77755577D01*
X126278112Y-77718913D01*
X126351540Y-77676520D01*
X126463344Y-77564716D01*
X126463344Y-77564714D01*
X126473547Y-77554512D01*
X126473551Y-77554506D01*
X126493937Y-77534120D01*
X126555258Y-77500637D01*
X126624950Y-77505621D01*
X126680883Y-77547493D01*
X126703233Y-77597612D01*
X126730261Y-77733489D01*
X126730264Y-77733501D01*
X126790602Y-77879172D01*
X126790609Y-77879185D01*
X126878210Y-78010288D01*
X126878213Y-78010292D01*
X126989707Y-78121786D01*
X126989711Y-78121789D01*
X127120814Y-78209390D01*
X127120827Y-78209397D01*
X127247138Y-78261716D01*
X127266503Y-78269737D01*
X127421153Y-78300499D01*
X127421156Y-78300500D01*
X127421158Y-78300500D01*
X127578844Y-78300500D01*
X127578845Y-78300499D01*
X127733497Y-78269737D01*
X127879179Y-78209394D01*
X128010289Y-78121789D01*
X128121789Y-78010289D01*
X128209394Y-77879179D01*
X128241154Y-77802502D01*
X128284992Y-77748101D01*
X128351286Y-77726035D01*
X128418986Y-77743313D01*
X128443395Y-77762275D01*
X128536635Y-77855515D01*
X128667865Y-77931281D01*
X128814234Y-77970500D01*
X128814236Y-77970500D01*
X128965764Y-77970500D01*
X128965766Y-77970500D01*
X129112135Y-77931281D01*
X129243365Y-77855515D01*
X129243366Y-77855513D01*
X129250403Y-77851451D01*
X129251676Y-77853656D01*
X129304956Y-77833043D01*
X129373405Y-77847063D01*
X129423407Y-77895864D01*
X129429867Y-77909157D01*
X129433809Y-77918674D01*
X129433814Y-77918684D01*
X129543248Y-78082462D01*
X129543251Y-78082466D01*
X129682533Y-78221748D01*
X129682537Y-78221751D01*
X129846315Y-78331185D01*
X129846328Y-78331192D01*
X130028308Y-78406569D01*
X130070000Y-78414862D01*
X130070000Y-77611988D01*
X130079940Y-77629205D01*
X130135795Y-77685060D01*
X130204204Y-77724556D01*
X130280504Y-77745000D01*
X130359496Y-77745000D01*
X130435796Y-77724556D01*
X130504205Y-77685060D01*
X130560060Y-77629205D01*
X130570000Y-77611988D01*
X130570000Y-78414862D01*
X130611690Y-78406569D01*
X130611692Y-78406569D01*
X130793671Y-78331192D01*
X130793684Y-78331185D01*
X130957462Y-78221751D01*
X130957466Y-78221748D01*
X131096748Y-78082466D01*
X131096751Y-78082462D01*
X131206185Y-77918684D01*
X131206192Y-77918671D01*
X131281569Y-77736693D01*
X131281572Y-77736681D01*
X131319999Y-77543495D01*
X131320000Y-77543492D01*
X131320000Y-77145000D01*
X130620000Y-77145000D01*
X130620000Y-76645000D01*
X131320000Y-76645000D01*
X131320000Y-76246508D01*
X131319999Y-76246504D01*
X131281572Y-76053318D01*
X131281569Y-76053306D01*
X131206192Y-75871328D01*
X131206185Y-75871315D01*
X131096751Y-75707537D01*
X131096748Y-75707533D01*
X130957466Y-75568251D01*
X130957462Y-75568248D01*
X130821802Y-75477602D01*
X130776997Y-75423989D01*
X130768290Y-75354664D01*
X130798445Y-75291637D01*
X130857888Y-75254918D01*
X130890693Y-75250500D01*
X131637770Y-75250500D01*
X131704809Y-75270185D01*
G37*
%TD.AperFunction*%
%TA.AperFunction,Conductor*%
G36*
X138034075Y-81692993D02*
G01*
X138099901Y-81807007D01*
X138192993Y-81900099D01*
X138307007Y-81965925D01*
X138370590Y-81982962D01*
X137738282Y-82615269D01*
X137738282Y-82615270D01*
X137792449Y-82654624D01*
X137981782Y-82751095D01*
X138001706Y-82757569D01*
X138059381Y-82797006D01*
X138086580Y-82861365D01*
X138074665Y-82930211D01*
X138027421Y-82981687D01*
X137963388Y-82999500D01*
X136498226Y-82999500D01*
X136431187Y-82979815D01*
X136385432Y-82927011D01*
X136375488Y-82857853D01*
X136404513Y-82794297D01*
X136459906Y-82757569D01*
X136478412Y-82751557D01*
X136667816Y-82655051D01*
X136754138Y-82592335D01*
X136839786Y-82530109D01*
X136839788Y-82530106D01*
X136839792Y-82530104D01*
X136990104Y-82379792D01*
X136990106Y-82379788D01*
X136990109Y-82379786D01*
X137075890Y-82261717D01*
X137115051Y-82207816D01*
X137119793Y-82198508D01*
X137167763Y-82147711D01*
X137235583Y-82130911D01*
X137301719Y-82153445D01*
X137340763Y-82198500D01*
X137345373Y-82207547D01*
X137384728Y-82261716D01*
X138017037Y-81629408D01*
X138034075Y-81692993D01*
G37*
%TD.AperFunction*%
%TA.AperFunction,Conductor*%
G36*
X139615270Y-82261717D02*
G01*
X139615270Y-82261716D01*
X139654622Y-82207554D01*
X139751093Y-82018221D01*
X139757568Y-81998294D01*
X139797005Y-81940618D01*
X139861363Y-81913419D01*
X139930210Y-81925333D01*
X139981686Y-81972576D01*
X139999500Y-82036611D01*
X139999500Y-82875500D01*
X139979815Y-82942539D01*
X139927011Y-82988294D01*
X139875500Y-82999500D01*
X139036612Y-82999500D01*
X138969573Y-82979815D01*
X138923818Y-82927011D01*
X138913874Y-82857853D01*
X138942899Y-82794297D01*
X138998294Y-82757569D01*
X139018217Y-82751095D01*
X139207554Y-82654622D01*
X139261716Y-82615270D01*
X139261717Y-82615270D01*
X138629408Y-81982962D01*
X138692993Y-81965925D01*
X138807007Y-81900099D01*
X138900099Y-81807007D01*
X138965925Y-81692993D01*
X138982962Y-81629408D01*
X139615270Y-82261717D01*
G37*
%TD.AperFunction*%
%TA.AperFunction,Conductor*%
G36*
X139655270Y-78261717D02*
G01*
X139655270Y-78261716D01*
X139694622Y-78207554D01*
X139765015Y-78069402D01*
X139812990Y-78018606D01*
X139880811Y-78001811D01*
X139946946Y-78024348D01*
X139990397Y-78079064D01*
X139999500Y-78125697D01*
X139999500Y-80963388D01*
X139979815Y-81030427D01*
X139927011Y-81076182D01*
X139857853Y-81086126D01*
X139794297Y-81057101D01*
X139757569Y-81001706D01*
X139751095Y-80981782D01*
X139654624Y-80792449D01*
X139615270Y-80738282D01*
X139615269Y-80738282D01*
X138982962Y-81370590D01*
X138965925Y-81307007D01*
X138900099Y-81192993D01*
X138807007Y-81099901D01*
X138692993Y-81034075D01*
X138629409Y-81017037D01*
X139261716Y-80384728D01*
X139207550Y-80345375D01*
X139018217Y-80248904D01*
X138816129Y-80183242D01*
X138606246Y-80150000D01*
X138393754Y-80150000D01*
X138183872Y-80183242D01*
X138183869Y-80183242D01*
X137981782Y-80248904D01*
X137792439Y-80345380D01*
X137738282Y-80384727D01*
X137738282Y-80384728D01*
X138370591Y-81017037D01*
X138307007Y-81034075D01*
X138192993Y-81099901D01*
X138099901Y-81192993D01*
X138034075Y-81307007D01*
X138017037Y-81370591D01*
X137384728Y-80738282D01*
X137384727Y-80738282D01*
X137345380Y-80792440D01*
X137345376Y-80792446D01*
X137340760Y-80801505D01*
X137292781Y-80852297D01*
X137224959Y-80869087D01*
X137158826Y-80846543D01*
X137119794Y-80801493D01*
X137115051Y-80792184D01*
X137115049Y-80792181D01*
X137115048Y-80792179D01*
X136990109Y-80620213D01*
X136839786Y-80469890D01*
X136667820Y-80344951D01*
X136478414Y-80248444D01*
X136478413Y-80248443D01*
X136478412Y-80248443D01*
X136276243Y-80182754D01*
X136276241Y-80182753D01*
X136276240Y-80182753D01*
X136114957Y-80157208D01*
X136066287Y-80149500D01*
X135853713Y-80149500D01*
X135813255Y-80155908D01*
X135643753Y-80182754D01*
X135611817Y-80193131D01*
X135541976Y-80195126D01*
X135482144Y-80159045D01*
X135451316Y-80096344D01*
X135449500Y-80075200D01*
X135449500Y-78911802D01*
X135469185Y-78844763D01*
X135521989Y-78799008D01*
X135591147Y-78789064D01*
X135611812Y-78793869D01*
X135683757Y-78817246D01*
X135893713Y-78850500D01*
X135893714Y-78850500D01*
X136106286Y-78850500D01*
X136106287Y-78850500D01*
X136316243Y-78817246D01*
X136518412Y-78751557D01*
X136707816Y-78655051D01*
X136794138Y-78592335D01*
X136879786Y-78530109D01*
X136879788Y-78530106D01*
X136879792Y-78530104D01*
X137030104Y-78379792D01*
X137030106Y-78379788D01*
X137030109Y-78379786D01*
X137110063Y-78269737D01*
X137155051Y-78207816D01*
X137159793Y-78198508D01*
X137207763Y-78147711D01*
X137275583Y-78130911D01*
X137341719Y-78153445D01*
X137380763Y-78198500D01*
X137385373Y-78207547D01*
X137424728Y-78261716D01*
X138057037Y-77629408D01*
X138074075Y-77692993D01*
X138139901Y-77807007D01*
X138232993Y-77900099D01*
X138347007Y-77965925D01*
X138410590Y-77982962D01*
X137778282Y-78615269D01*
X137778282Y-78615270D01*
X137832449Y-78654624D01*
X138021782Y-78751095D01*
X138223870Y-78816757D01*
X138433754Y-78850000D01*
X138646246Y-78850000D01*
X138856127Y-78816757D01*
X138856130Y-78816757D01*
X139058217Y-78751095D01*
X139247554Y-78654622D01*
X139301716Y-78615270D01*
X139301717Y-78615270D01*
X138669408Y-77982962D01*
X138732993Y-77965925D01*
X138847007Y-77900099D01*
X138940099Y-77807007D01*
X139005925Y-77692993D01*
X139022962Y-77629408D01*
X139655270Y-78261717D01*
G37*
%TD.AperFunction*%
%TA.AperFunction,Conductor*%
G36*
X136741007Y-72880864D02*
G01*
X136742147Y-72880701D01*
X136772964Y-72894774D01*
X136804017Y-72908291D01*
X136805029Y-72909418D01*
X136805703Y-72909726D01*
X136827602Y-72934548D01*
X136878210Y-73010288D01*
X136878213Y-73010292D01*
X136989707Y-73121786D01*
X136989711Y-73121789D01*
X137120814Y-73209390D01*
X137120827Y-73209397D01*
X137190592Y-73238294D01*
X137266503Y-73269737D01*
X137363822Y-73289095D01*
X137421153Y-73300499D01*
X137421156Y-73300500D01*
X137421158Y-73300500D01*
X137578844Y-73300500D01*
X137578845Y-73300499D01*
X137733497Y-73269737D01*
X137744233Y-73265289D01*
X137813700Y-73257821D01*
X137876180Y-73289095D01*
X137890950Y-73305538D01*
X137892449Y-73307541D01*
X137892452Y-73307544D01*
X137892454Y-73307546D01*
X137892457Y-73307548D01*
X138007664Y-73393793D01*
X138007671Y-73393797D01*
X138142517Y-73444091D01*
X138142516Y-73444091D01*
X138149444Y-73444835D01*
X138202127Y-73450500D01*
X139797872Y-73450499D01*
X139851407Y-73444744D01*
X139862247Y-73443579D01*
X139931006Y-73455986D01*
X139982143Y-73503597D01*
X139999500Y-73566869D01*
X139999500Y-76874302D01*
X139979815Y-76941341D01*
X139927011Y-76987096D01*
X139857853Y-76997040D01*
X139794297Y-76968015D01*
X139765015Y-76930597D01*
X139694624Y-76792450D01*
X139655270Y-76738282D01*
X139655269Y-76738282D01*
X139022962Y-77370590D01*
X139005925Y-77307007D01*
X138940099Y-77192993D01*
X138847007Y-77099901D01*
X138732993Y-77034075D01*
X138669409Y-77017037D01*
X139301716Y-76384728D01*
X139247550Y-76345375D01*
X139058217Y-76248904D01*
X138856129Y-76183242D01*
X138646246Y-76150000D01*
X138433754Y-76150000D01*
X138223872Y-76183242D01*
X138223869Y-76183242D01*
X138021782Y-76248904D01*
X137832439Y-76345380D01*
X137778282Y-76384727D01*
X137778282Y-76384728D01*
X138410591Y-77017037D01*
X138347007Y-77034075D01*
X138232993Y-77099901D01*
X138139901Y-77192993D01*
X138074075Y-77307007D01*
X138057037Y-77370591D01*
X137424728Y-76738282D01*
X137424727Y-76738282D01*
X137385380Y-76792440D01*
X137385376Y-76792446D01*
X137380760Y-76801505D01*
X137332781Y-76852297D01*
X137264959Y-76869087D01*
X137198826Y-76846543D01*
X137159794Y-76801493D01*
X137155051Y-76792184D01*
X137155049Y-76792181D01*
X137155048Y-76792179D01*
X137030109Y-76620213D01*
X136879786Y-76469890D01*
X136707815Y-76344948D01*
X136707814Y-76344947D01*
X136668205Y-76324765D01*
X136617409Y-76276791D01*
X136600500Y-76214281D01*
X136600500Y-73003439D01*
X136610043Y-72970938D01*
X136619005Y-72938272D01*
X136619861Y-72937502D01*
X136620185Y-72936400D01*
X136645754Y-72914243D01*
X136670983Y-72891582D01*
X136672120Y-72891397D01*
X136672989Y-72890645D01*
X136706511Y-72885824D01*
X136739953Y-72880406D01*
X136741007Y-72880864D01*
G37*
%TD.AperFunction*%
%TA.AperFunction,Conductor*%
G36*
X121193039Y-48520185D02*
G01*
X121238794Y-48572989D01*
X121250000Y-48624500D01*
X121250000Y-54500000D01*
X139250000Y-54500000D01*
X139250000Y-48624500D01*
X139269685Y-48557461D01*
X139322489Y-48511706D01*
X139374000Y-48500500D01*
X139875500Y-48500500D01*
X139942539Y-48520185D01*
X139988294Y-48572989D01*
X139999500Y-48624500D01*
X139999500Y-54923636D01*
X139979815Y-54990675D01*
X139927011Y-55036430D01*
X139862244Y-55046925D01*
X139797844Y-55040000D01*
X139250000Y-55040000D01*
X139250000Y-55866000D01*
X139230315Y-55933039D01*
X139177511Y-55978794D01*
X139126000Y-55990000D01*
X139000000Y-55990000D01*
X139000000Y-56116000D01*
X138980315Y-56183039D01*
X138927511Y-56228794D01*
X138876000Y-56240000D01*
X137750000Y-56240000D01*
X137750000Y-56419214D01*
X137730315Y-56486253D01*
X137677511Y-56532008D01*
X137608353Y-56541952D01*
X137578548Y-56533776D01*
X137560842Y-56526442D01*
X137473497Y-56490263D01*
X137473492Y-56490262D01*
X137473489Y-56490261D01*
X137318845Y-56459500D01*
X137318842Y-56459500D01*
X137161158Y-56459500D01*
X137161155Y-56459500D01*
X137006510Y-56490261D01*
X137006498Y-56490264D01*
X136860827Y-56550602D01*
X136860814Y-56550609D01*
X136729711Y-56638210D01*
X136729707Y-56638213D01*
X136618213Y-56749707D01*
X136618210Y-56749711D01*
X136530609Y-56880814D01*
X136530602Y-56880827D01*
X136470264Y-57026498D01*
X136470261Y-57026510D01*
X136439500Y-57181153D01*
X136439500Y-57338846D01*
X136470261Y-57493489D01*
X136470264Y-57493501D01*
X136530602Y-57639172D01*
X136530609Y-57639185D01*
X136618210Y-57770288D01*
X136618213Y-57770292D01*
X136729708Y-57881787D01*
X136729711Y-57881789D01*
X136779125Y-57914806D01*
X136823931Y-57968418D01*
X136832638Y-58037743D01*
X136813338Y-58086799D01*
X136790608Y-58120816D01*
X136790602Y-58120827D01*
X136730264Y-58266498D01*
X136730261Y-58266510D01*
X136699500Y-58421153D01*
X136699500Y-58578846D01*
X136730261Y-58733489D01*
X136730264Y-58733501D01*
X136790602Y-58879172D01*
X136790609Y-58879185D01*
X136878210Y-59010288D01*
X136878213Y-59010292D01*
X136989707Y-59121786D01*
X136989711Y-59121789D01*
X137120814Y-59209390D01*
X137120827Y-59209397D01*
X137266498Y-59269735D01*
X137266503Y-59269737D01*
X137421158Y-59300500D01*
X137426427Y-59301548D01*
X137488338Y-59333933D01*
X137522912Y-59394648D01*
X137519173Y-59464418D01*
X137489917Y-59510846D01*
X134483035Y-62517728D01*
X134483027Y-62517736D01*
X134480286Y-62520478D01*
X134480284Y-62520480D01*
X134368480Y-62632284D01*
X134349067Y-62665909D01*
X134289423Y-62769215D01*
X134248499Y-62921943D01*
X134248499Y-62921945D01*
X134248499Y-63090046D01*
X134248500Y-63090059D01*
X134248500Y-75387769D01*
X134228815Y-75454808D01*
X134176011Y-75500563D01*
X134106853Y-75510507D01*
X134043297Y-75481482D01*
X134036819Y-75475450D01*
X132478421Y-73917052D01*
X132478414Y-73917046D01*
X132404729Y-73867812D01*
X132404729Y-73867813D01*
X132355491Y-73834913D01*
X132218917Y-73778343D01*
X132218907Y-73778340D01*
X132073920Y-73749500D01*
X132073918Y-73749500D01*
X128926082Y-73749500D01*
X128894987Y-73755685D01*
X128825395Y-73749456D01*
X128783116Y-73721748D01*
X128478421Y-73417052D01*
X128478414Y-73417046D01*
X128404729Y-73367812D01*
X128404729Y-73367813D01*
X128355491Y-73334913D01*
X128218917Y-73278343D01*
X128218907Y-73278340D01*
X128073920Y-73249500D01*
X128073918Y-73249500D01*
X126874500Y-73249500D01*
X126807461Y-73229815D01*
X126761706Y-73177011D01*
X126750500Y-73125500D01*
X126750500Y-70304604D01*
X126759939Y-70257151D01*
X126769737Y-70233497D01*
X126800500Y-70078842D01*
X126800500Y-69921158D01*
X126800500Y-69921155D01*
X126800499Y-69921153D01*
X126769738Y-69766510D01*
X126769737Y-69766503D01*
X126769735Y-69766498D01*
X126709397Y-69620827D01*
X126709390Y-69620814D01*
X126621789Y-69489711D01*
X126621786Y-69489707D01*
X126510292Y-69378213D01*
X126510288Y-69378210D01*
X126379185Y-69290609D01*
X126379172Y-69290602D01*
X126233501Y-69230264D01*
X126233489Y-69230261D01*
X126078845Y-69199500D01*
X126078842Y-69199500D01*
X125921158Y-69199500D01*
X125921155Y-69199500D01*
X125766510Y-69230261D01*
X125766498Y-69230264D01*
X125620827Y-69290602D01*
X125620814Y-69290609D01*
X125489711Y-69378210D01*
X125489707Y-69378213D01*
X125378213Y-69489707D01*
X125378210Y-69489711D01*
X125290609Y-69620814D01*
X125290602Y-69620827D01*
X125230264Y-69766498D01*
X125230261Y-69766510D01*
X125199500Y-69921153D01*
X125199500Y-70078846D01*
X125230261Y-70233489D01*
X125230263Y-70233497D01*
X125240061Y-70257151D01*
X125249500Y-70304604D01*
X125249500Y-73125500D01*
X125229815Y-73192539D01*
X125177011Y-73238294D01*
X125125500Y-73249500D01*
X124426080Y-73249500D01*
X124281092Y-73278340D01*
X124281082Y-73278343D01*
X124144511Y-73334912D01*
X124144498Y-73334919D01*
X124021584Y-73417048D01*
X124021580Y-73417051D01*
X123017052Y-74421578D01*
X123017046Y-74421585D01*
X122979074Y-74478415D01*
X122979075Y-74478416D01*
X122934913Y-74544508D01*
X122878343Y-74681082D01*
X122878340Y-74681092D01*
X122849500Y-74826079D01*
X122849500Y-75612670D01*
X122844576Y-75647265D01*
X122802402Y-75792426D01*
X122802401Y-75792432D01*
X122799500Y-75829298D01*
X122799500Y-76810701D01*
X122800964Y-76829298D01*
X122799550Y-76836027D01*
X122801292Y-76842678D01*
X122792459Y-76869780D01*
X122786599Y-76897675D01*
X122781256Y-76904155D01*
X122779642Y-76909109D01*
X122761695Y-76928052D01*
X122762381Y-76928738D01*
X122761681Y-76929438D01*
X122759374Y-76930697D01*
X122755753Y-76935090D01*
X122752407Y-76937821D01*
X122752139Y-76937933D01*
X122750202Y-76939421D01*
X122749813Y-76938914D01*
X122725749Y-76949058D01*
X122700358Y-76962923D01*
X122693946Y-76962464D01*
X122688024Y-76964961D01*
X122659526Y-76960002D01*
X122630666Y-76957939D01*
X122625519Y-76954086D01*
X122619189Y-76952985D01*
X122597893Y-76933404D01*
X122574733Y-76916067D01*
X122572487Y-76910045D01*
X122567755Y-76905695D01*
X122560425Y-76877706D01*
X122550316Y-76850603D01*
X122550000Y-76841757D01*
X122550000Y-76570000D01*
X121980000Y-76570000D01*
X121980000Y-76305504D01*
X121959556Y-76229204D01*
X121920060Y-76160795D01*
X121864205Y-76104940D01*
X121795796Y-76065444D01*
X121719496Y-76045000D01*
X121640504Y-76045000D01*
X121564204Y-76065444D01*
X121495795Y-76104940D01*
X121439940Y-76160795D01*
X121430000Y-76178011D01*
X121430000Y-75375136D01*
X121429999Y-75375135D01*
X121930000Y-75375135D01*
X121930000Y-76070000D01*
X122550000Y-76070000D01*
X122550000Y-75247703D01*
X122547503Y-75247900D01*
X122389806Y-75293716D01*
X122389803Y-75293717D01*
X122248449Y-75377313D01*
X122248443Y-75377318D01*
X122221646Y-75404114D01*
X122160321Y-75437597D01*
X122090630Y-75432610D01*
X122086514Y-75430991D01*
X121971687Y-75383428D01*
X121971683Y-75383427D01*
X121930000Y-75375135D01*
X121429999Y-75375135D01*
X121388316Y-75383427D01*
X121388308Y-75383429D01*
X121206328Y-75458807D01*
X121206315Y-75458814D01*
X121042537Y-75568248D01*
X121042533Y-75568251D01*
X120903251Y-75707533D01*
X120903248Y-75707537D01*
X120793814Y-75871315D01*
X120793809Y-75871324D01*
X120739061Y-76003500D01*
X120695220Y-76057903D01*
X120628926Y-76079968D01*
X120561227Y-76062689D01*
X120513616Y-76011552D01*
X120500500Y-75956047D01*
X120500500Y-73566868D01*
X120520185Y-73499829D01*
X120572989Y-73454074D01*
X120637756Y-73443579D01*
X120642516Y-73444090D01*
X120642517Y-73444091D01*
X120702127Y-73450500D01*
X122297872Y-73450499D01*
X122357483Y-73444091D01*
X122492331Y-73393796D01*
X122607546Y-73307546D01*
X122693796Y-73192331D01*
X122744091Y-73057483D01*
X122750500Y-72997873D01*
X122750499Y-72002128D01*
X122744091Y-71942517D01*
X122731340Y-71908332D01*
X122726357Y-71838642D01*
X122731338Y-71821672D01*
X122744091Y-71787483D01*
X122750500Y-71727873D01*
X122750499Y-70732128D01*
X122744091Y-70672517D01*
X122731340Y-70638332D01*
X122726357Y-70568642D01*
X122731338Y-70551672D01*
X122744091Y-70517483D01*
X122750500Y-70457873D01*
X122750499Y-69462128D01*
X122744091Y-69402517D01*
X122731340Y-69368332D01*
X122726357Y-69298642D01*
X122731340Y-69281669D01*
X122744091Y-69247483D01*
X122750500Y-69187873D01*
X122750499Y-68192128D01*
X122744091Y-68132517D01*
X122731340Y-68098332D01*
X122726357Y-68028642D01*
X122731340Y-68011669D01*
X122744091Y-67977483D01*
X122750500Y-67917873D01*
X122750499Y-66922128D01*
X122744091Y-66862517D01*
X122731340Y-66828332D01*
X122726357Y-66758642D01*
X122731340Y-66741669D01*
X122744091Y-66707483D01*
X122750500Y-66647873D01*
X122750499Y-65652128D01*
X122744091Y-65592517D01*
X122731340Y-65558332D01*
X122726357Y-65488642D01*
X122731340Y-65471669D01*
X122744091Y-65437483D01*
X122750500Y-65377873D01*
X122750499Y-64921153D01*
X125699500Y-64921153D01*
X125699500Y-65078846D01*
X125730261Y-65233489D01*
X125730264Y-65233501D01*
X125790602Y-65379172D01*
X125790609Y-65379185D01*
X125878210Y-65510288D01*
X125878213Y-65510292D01*
X125989707Y-65621786D01*
X125989711Y-65621789D01*
X126120814Y-65709390D01*
X126120827Y-65709397D01*
X126266498Y-65769735D01*
X126266503Y-65769737D01*
X126421153Y-65800499D01*
X126421156Y-65800500D01*
X126421158Y-65800500D01*
X126578844Y-65800500D01*
X126578845Y-65800499D01*
X126733497Y-65769737D01*
X126879179Y-65709394D01*
X127010289Y-65621789D01*
X127121789Y-65510289D01*
X127209394Y-65379179D01*
X127269737Y-65233497D01*
X127300500Y-65078842D01*
X127300500Y-64921158D01*
X127300500Y-64921155D01*
X127300499Y-64921153D01*
X127269738Y-64766510D01*
X127269737Y-64766503D01*
X127269735Y-64766498D01*
X127209397Y-64620827D01*
X127209390Y-64620814D01*
X127121398Y-64489125D01*
X127100520Y-64422447D01*
X127100500Y-64420234D01*
X127100500Y-63407844D01*
X129605000Y-63407844D01*
X129611401Y-63467372D01*
X129611403Y-63467379D01*
X129661645Y-63602086D01*
X129661649Y-63602093D01*
X129747809Y-63717187D01*
X129747812Y-63717190D01*
X129862906Y-63803350D01*
X129862913Y-63803354D01*
X129997620Y-63853596D01*
X129997627Y-63853598D01*
X130057155Y-63859999D01*
X130057172Y-63860000D01*
X130255000Y-63860000D01*
X130755000Y-63860000D01*
X130952828Y-63860000D01*
X130952844Y-63859999D01*
X131012371Y-63853598D01*
X131086666Y-63825888D01*
X131156358Y-63820904D01*
X131173334Y-63825888D01*
X131247628Y-63853598D01*
X131247627Y-63853598D01*
X131307155Y-63859999D01*
X131307172Y-63860000D01*
X131505000Y-63860000D01*
X132005000Y-63860000D01*
X132202828Y-63860000D01*
X132202844Y-63859999D01*
X132262371Y-63853598D01*
X132336666Y-63825888D01*
X132406358Y-63820904D01*
X132423334Y-63825888D01*
X132497628Y-63853598D01*
X132497627Y-63853598D01*
X132557155Y-63859999D01*
X132557172Y-63860000D01*
X132755000Y-63860000D01*
X133255000Y-63860000D01*
X133452828Y-63860000D01*
X133452844Y-63859999D01*
X133512372Y-63853598D01*
X133512379Y-63853596D01*
X133647086Y-63803354D01*
X133647093Y-63803350D01*
X133762187Y-63717190D01*
X133762190Y-63717187D01*
X133848350Y-63602093D01*
X133848354Y-63602086D01*
X133898596Y-63467379D01*
X133898598Y-63467372D01*
X133904999Y-63407844D01*
X133905000Y-63407827D01*
X133905000Y-63210000D01*
X133255000Y-63210000D01*
X133255000Y-63860000D01*
X132755000Y-63860000D01*
X132755000Y-63210000D01*
X132005000Y-63210000D01*
X132005000Y-63860000D01*
X131505000Y-63860000D01*
X131505000Y-63210000D01*
X130755000Y-63210000D01*
X130755000Y-63860000D01*
X130255000Y-63860000D01*
X130255000Y-63210000D01*
X129605000Y-63210000D01*
X129605000Y-63407844D01*
X127100500Y-63407844D01*
X127100500Y-62800097D01*
X127120185Y-62733058D01*
X127136819Y-62712416D01*
X127270178Y-62579057D01*
X127514665Y-62334570D01*
X127575984Y-62301088D01*
X127578151Y-62300637D01*
X127578840Y-62300500D01*
X127578842Y-62300500D01*
X127733497Y-62269737D01*
X127879179Y-62209394D01*
X127956329Y-62157844D01*
X129605000Y-62157844D01*
X129611401Y-62217372D01*
X129611403Y-62217382D01*
X129639110Y-62291668D01*
X129644094Y-62361359D01*
X129639110Y-62378332D01*
X129611403Y-62452617D01*
X129611401Y-62452627D01*
X129605000Y-62512155D01*
X129605000Y-62710000D01*
X130255000Y-62710000D01*
X130755000Y-62710000D01*
X131505000Y-62710000D01*
X132005000Y-62710000D01*
X132755000Y-62710000D01*
X133255000Y-62710000D01*
X133905000Y-62710000D01*
X133905000Y-62512172D01*
X133904999Y-62512155D01*
X133898598Y-62452628D01*
X133870888Y-62378334D01*
X133865904Y-62308642D01*
X133870888Y-62291666D01*
X133898598Y-62217371D01*
X133904999Y-62157844D01*
X133905000Y-62157827D01*
X133905000Y-61960000D01*
X133255000Y-61960000D01*
X133255000Y-62710000D01*
X132755000Y-62710000D01*
X132755000Y-61960000D01*
X132005000Y-61960000D01*
X132005000Y-62710000D01*
X131505000Y-62710000D01*
X131505000Y-61960000D01*
X130755000Y-61960000D01*
X130755000Y-62710000D01*
X130255000Y-62710000D01*
X130255000Y-61960000D01*
X129605000Y-61960000D01*
X129605000Y-62157844D01*
X127956329Y-62157844D01*
X128010289Y-62121789D01*
X128121789Y-62010289D01*
X128209394Y-61879179D01*
X128269737Y-61733497D01*
X128300500Y-61578842D01*
X128300500Y-61421158D01*
X128300500Y-61421155D01*
X128300499Y-61421153D01*
X128269738Y-61266510D01*
X128269738Y-61266508D01*
X128269737Y-61266503D01*
X128267936Y-61262155D01*
X128209397Y-61120827D01*
X128209390Y-61120814D01*
X128121789Y-60989711D01*
X128121786Y-60989707D01*
X128039923Y-60907844D01*
X129605000Y-60907844D01*
X129611401Y-60967372D01*
X129611403Y-60967382D01*
X129639110Y-61041668D01*
X129644094Y-61111359D01*
X129639110Y-61128332D01*
X129611403Y-61202617D01*
X129611401Y-61202627D01*
X129605000Y-61262155D01*
X129605000Y-61460000D01*
X130255000Y-61460000D01*
X130755000Y-61460000D01*
X131505000Y-61460000D01*
X132005000Y-61460000D01*
X132755000Y-61460000D01*
X133255000Y-61460000D01*
X133905000Y-61460000D01*
X133905000Y-61262172D01*
X133904999Y-61262155D01*
X133898598Y-61202628D01*
X133870888Y-61128334D01*
X133865904Y-61058642D01*
X133870888Y-61041666D01*
X133898598Y-60967371D01*
X133904999Y-60907844D01*
X133905000Y-60907827D01*
X133905000Y-60710000D01*
X133255000Y-60710000D01*
X133255000Y-61460000D01*
X132755000Y-61460000D01*
X132755000Y-60710000D01*
X132005000Y-60710000D01*
X132005000Y-61460000D01*
X131505000Y-61460000D01*
X131505000Y-60710000D01*
X130755000Y-60710000D01*
X130755000Y-61460000D01*
X130255000Y-61460000D01*
X130255000Y-60710000D01*
X129605000Y-60710000D01*
X129605000Y-60907844D01*
X128039923Y-60907844D01*
X128010292Y-60878213D01*
X128010288Y-60878210D01*
X127879185Y-60790609D01*
X127879176Y-60790604D01*
X127837155Y-60773199D01*
X127837153Y-60773198D01*
X127733501Y-60730264D01*
X127733489Y-60730261D01*
X127578845Y-60699500D01*
X127578842Y-60699500D01*
X127421158Y-60699500D01*
X127421155Y-60699500D01*
X127266510Y-60730261D01*
X127266498Y-60730264D01*
X127120827Y-60790602D01*
X127120814Y-60790609D01*
X126989711Y-60878210D01*
X126989707Y-60878213D01*
X126878213Y-60989707D01*
X126878210Y-60989711D01*
X126790609Y-61120814D01*
X126790602Y-61120827D01*
X126730264Y-61266498D01*
X126730261Y-61266508D01*
X126699362Y-61421848D01*
X126666977Y-61483759D01*
X126665426Y-61485337D01*
X126131286Y-62019478D01*
X126019481Y-62131282D01*
X126019479Y-62131285D01*
X125974385Y-62209392D01*
X125974384Y-62209393D01*
X125940423Y-62268214D01*
X125940423Y-62268215D01*
X125899499Y-62420943D01*
X125899499Y-62420945D01*
X125899499Y-62589046D01*
X125899500Y-62589059D01*
X125899500Y-64420234D01*
X125879815Y-64487273D01*
X125878602Y-64489125D01*
X125790609Y-64620814D01*
X125790602Y-64620827D01*
X125730264Y-64766498D01*
X125730261Y-64766510D01*
X125699500Y-64921153D01*
X122750499Y-64921153D01*
X122750499Y-64766510D01*
X122750499Y-64382129D01*
X122750498Y-64382123D01*
X122750497Y-64382116D01*
X122744091Y-64322517D01*
X122731340Y-64288332D01*
X122726357Y-64218642D01*
X122731340Y-64201669D01*
X122744091Y-64167483D01*
X122750500Y-64107873D01*
X122750499Y-63112128D01*
X122744091Y-63052517D01*
X122731340Y-63018332D01*
X122726357Y-62948642D01*
X122731338Y-62931672D01*
X122744091Y-62897483D01*
X122750500Y-62837873D01*
X122750499Y-61842128D01*
X122744091Y-61782517D01*
X122731340Y-61748332D01*
X122726357Y-61678642D01*
X122731338Y-61661672D01*
X122744091Y-61627483D01*
X122750500Y-61567873D01*
X122750499Y-60572128D01*
X122744091Y-60512517D01*
X122731340Y-60478332D01*
X122726357Y-60408642D01*
X122731338Y-60391672D01*
X122744091Y-60357483D01*
X122750500Y-60297873D01*
X122750500Y-60012155D01*
X129605000Y-60012155D01*
X129605000Y-60210000D01*
X130255000Y-60210000D01*
X130755000Y-60210000D01*
X131505000Y-60210000D01*
X132005000Y-60210000D01*
X132755000Y-60210000D01*
X133255000Y-60210000D01*
X133905000Y-60210000D01*
X133905000Y-60012172D01*
X133904999Y-60012155D01*
X133898598Y-59952627D01*
X133898596Y-59952620D01*
X133848354Y-59817913D01*
X133848350Y-59817906D01*
X133762190Y-59702812D01*
X133762187Y-59702809D01*
X133647093Y-59616649D01*
X133647086Y-59616645D01*
X133512379Y-59566403D01*
X133512372Y-59566401D01*
X133452844Y-59560000D01*
X133255000Y-59560000D01*
X133255000Y-60210000D01*
X132755000Y-60210000D01*
X132755000Y-59560000D01*
X132557155Y-59560000D01*
X132497627Y-59566401D01*
X132497617Y-59566403D01*
X132423332Y-59594110D01*
X132353641Y-59599094D01*
X132336668Y-59594110D01*
X132262382Y-59566403D01*
X132262372Y-59566401D01*
X132202844Y-59560000D01*
X132005000Y-59560000D01*
X132005000Y-60210000D01*
X131505000Y-60210000D01*
X131505000Y-59560000D01*
X131307155Y-59560000D01*
X131247627Y-59566401D01*
X131247617Y-59566403D01*
X131173332Y-59594110D01*
X131103641Y-59599094D01*
X131086668Y-59594110D01*
X131012382Y-59566403D01*
X131012372Y-59566401D01*
X130952844Y-59560000D01*
X130755000Y-59560000D01*
X130755000Y-60210000D01*
X130255000Y-60210000D01*
X130255000Y-59560000D01*
X130057155Y-59560000D01*
X129997627Y-59566401D01*
X129997620Y-59566403D01*
X129862913Y-59616645D01*
X129862906Y-59616649D01*
X129747812Y-59702809D01*
X129747809Y-59702812D01*
X129661649Y-59817906D01*
X129661645Y-59817913D01*
X129611403Y-59952620D01*
X129611401Y-59952627D01*
X129605000Y-60012155D01*
X122750500Y-60012155D01*
X122750499Y-59417647D01*
X122770183Y-59350609D01*
X122822987Y-59304854D01*
X122892146Y-59294910D01*
X122898684Y-59296029D01*
X122910081Y-59298296D01*
X122921157Y-59300500D01*
X122921158Y-59300500D01*
X123078844Y-59300500D01*
X123078845Y-59300499D01*
X123233497Y-59269737D01*
X123379179Y-59209394D01*
X123510289Y-59121789D01*
X123621789Y-59010289D01*
X123709394Y-58879179D01*
X123769737Y-58733497D01*
X123800500Y-58578842D01*
X123800500Y-58421158D01*
X123800500Y-58421155D01*
X123800499Y-58421153D01*
X123769738Y-58266510D01*
X123769737Y-58266503D01*
X123769735Y-58266498D01*
X123709397Y-58120827D01*
X123709390Y-58120814D01*
X123621789Y-57989711D01*
X123621786Y-57989707D01*
X123510292Y-57878213D01*
X123510288Y-57878210D01*
X123379185Y-57790609D01*
X123379172Y-57790602D01*
X123233501Y-57730264D01*
X123233489Y-57730261D01*
X123078845Y-57699500D01*
X123078842Y-57699500D01*
X122921158Y-57699500D01*
X122921157Y-57699500D01*
X122898688Y-57703969D01*
X122829097Y-57697740D01*
X122773920Y-57654876D01*
X122750677Y-57588986D01*
X122750499Y-57582351D01*
X122750499Y-56762129D01*
X122750498Y-56762123D01*
X122749163Y-56749707D01*
X122744091Y-56702517D01*
X122731073Y-56667616D01*
X122726090Y-56597926D01*
X122731075Y-56580949D01*
X122743597Y-56547375D01*
X122743598Y-56547372D01*
X122749999Y-56487844D01*
X122750000Y-56487827D01*
X122750000Y-56240000D01*
X121624000Y-56240000D01*
X121556961Y-56220315D01*
X121511206Y-56167511D01*
X121500000Y-56116000D01*
X121500000Y-55990000D01*
X121374000Y-55990000D01*
X121306961Y-55970315D01*
X121261206Y-55917511D01*
X121250000Y-55866000D01*
X121250000Y-55740000D01*
X121750000Y-55740000D01*
X122750000Y-55740000D01*
X122750000Y-55492172D01*
X122749999Y-55492155D01*
X137750000Y-55492155D01*
X137750000Y-55740000D01*
X138750000Y-55740000D01*
X138750000Y-55040000D01*
X138202155Y-55040000D01*
X138142627Y-55046401D01*
X138142620Y-55046403D01*
X138007913Y-55096645D01*
X138007906Y-55096649D01*
X137892812Y-55182809D01*
X137892809Y-55182812D01*
X137806649Y-55297906D01*
X137806645Y-55297913D01*
X137756403Y-55432620D01*
X137756401Y-55432627D01*
X137750000Y-55492155D01*
X122749999Y-55492155D01*
X122743598Y-55432627D01*
X122743596Y-55432620D01*
X122693354Y-55297913D01*
X122693350Y-55297906D01*
X122607190Y-55182812D01*
X122607187Y-55182809D01*
X122492093Y-55096649D01*
X122492086Y-55096645D01*
X122357379Y-55046403D01*
X122357372Y-55046401D01*
X122297844Y-55040000D01*
X121750000Y-55040000D01*
X121750000Y-55740000D01*
X121250000Y-55740000D01*
X121250000Y-55040000D01*
X120702155Y-55040000D01*
X120637756Y-55046925D01*
X120568996Y-55034520D01*
X120517859Y-54986910D01*
X120500500Y-54923636D01*
X120500500Y-48624500D01*
X120520185Y-48557461D01*
X120572989Y-48511706D01*
X120624500Y-48500500D01*
X121126000Y-48500500D01*
X121193039Y-48520185D01*
G37*
%TD.AperFunction*%
%TA.AperFunction,Conductor*%
G36*
X129393039Y-76339685D02*
G01*
X129438794Y-76392489D01*
X129450000Y-76444000D01*
X129450000Y-76841757D01*
X129430315Y-76908796D01*
X129377511Y-76954551D01*
X129308353Y-76964495D01*
X129250766Y-76938196D01*
X129249816Y-76939435D01*
X129247169Y-76937404D01*
X129246236Y-76936127D01*
X129244797Y-76935470D01*
X129238319Y-76929438D01*
X129237619Y-76928738D01*
X129239481Y-76926875D01*
X129205965Y-76880977D01*
X129199036Y-76829292D01*
X129200500Y-76810694D01*
X129200500Y-76444000D01*
X129203050Y-76435314D01*
X129201762Y-76426353D01*
X129212740Y-76402312D01*
X129220185Y-76376961D01*
X129227025Y-76371033D01*
X129230787Y-76362797D01*
X129253021Y-76348507D01*
X129272989Y-76331206D01*
X129283503Y-76328918D01*
X129289565Y-76325023D01*
X129324500Y-76320000D01*
X129326000Y-76320000D01*
X129393039Y-76339685D01*
G37*
%TD.AperFunction*%
%TD*%
M02*
