%TF.GenerationSoftware,KiCad,Pcbnew,9.0.7*%
%TF.CreationDate,2026-09-25T08:11:05+02:00*%
%TF.ProjectId,esp32-c3-led,65737033-322d-4633-932d-6c65642e6b69,rev?*%
%TF.SameCoordinates,Original*%
%TF.FileFunction,Soldermask,Top*%
%TF.FilePolarity,Negative*%
%FSLAX46Y46*%
G04 Gerber Fmt 4.6, Leading zero omitted, Abs format (unit mm)*
G04 Created by KiCad (PCBNEW 9.0.7) date 2026-09-25 08:11:05*
%MOMM*%
%LPD*%
G01*
G04 APERTURE LIST*
G04 Aperture macros list*
%AMRoundRect*
0 Rectangle with rounded corners*
0 $1 Rounding radius*
0 $2 $3 $4 $5 $6 $7 $8 $9 X,Y pos of 4 corners*
0 Add a 4 corners polygon primitive as box body*
4,1,4,$2,$3,$4,$5,$6,$7,$8,$9,$2,$3,0*
0 Add four circle primitives for the rounded corners*
1,1,$1+$1,$2,$3*
1,1,$1+$1,$4,$5*
1,1,$1+$1,$6,$7*
1,1,$1+$1,$8,$9*
0 Add four rect primitives between the rounded corners*
20,1,$1+$1,$2,$3,$4,$5,0*
20,1,$1+$1,$4,$5,$6,$7,0*
20,1,$1+$1,$6,$7,$8,$9,0*
20,1,$1+$1,$8,$9,$2,$3,0*%
G04 Aperture macros list end*
%ADD10RoundRect,0.250000X-0.850000X-0.350000X0.850000X-0.350000X0.850000X0.350000X-0.850000X0.350000X0*%
%ADD11RoundRect,0.249997X-2.950003X-2.650003X2.950003X-2.650003X2.950003X2.650003X-2.950003X2.650003X0*%
%ADD12RoundRect,0.225000X0.250000X-0.225000X0.250000X0.225000X-0.250000X0.225000X-0.250000X-0.225000X0*%
%ADD13RoundRect,0.062500X-0.062500X0.117500X-0.062500X-0.117500X0.062500X-0.117500X0.062500X0.117500X0*%
%ADD14RoundRect,0.250000X0.250000X0.475000X-0.250000X0.475000X-0.250000X-0.475000X0.250000X-0.475000X0*%
%ADD15RoundRect,0.075000X0.075000X-0.125000X0.075000X0.125000X-0.075000X0.125000X-0.075000X-0.125000X0*%
%ADD16RoundRect,0.225000X-0.250000X0.225000X-0.250000X-0.225000X0.250000X-0.225000X0.250000X0.225000X0*%
%ADD17RoundRect,0.218750X0.218750X0.256250X-0.218750X0.256250X-0.218750X-0.256250X0.218750X-0.256250X0*%
%ADD18RoundRect,0.150000X0.150000X-0.512500X0.150000X0.512500X-0.150000X0.512500X-0.150000X-0.512500X0*%
%ADD19RoundRect,0.160000X0.160000X-0.197500X0.160000X0.197500X-0.160000X0.197500X-0.160000X-0.197500X0*%
%ADD20R,0.900000X1.700000*%
%ADD21RoundRect,0.160000X-0.160000X0.197500X-0.160000X-0.197500X0.160000X-0.197500X0.160000X0.197500X0*%
%ADD22RoundRect,0.160000X0.197500X0.160000X-0.197500X0.160000X-0.197500X-0.160000X0.197500X-0.160000X0*%
%ADD23R,1.700000X1.700000*%
%ADD24C,1.700000*%
%ADD25C,0.650000*%
%ADD26O,1.000000X1.800000*%
%ADD27O,1.000000X2.100000*%
G04 APERTURE END LIST*
D10*
%TO.C,U3*%
X128525000Y-64245000D03*
X128525000Y-66525000D03*
D11*
X134825000Y-66525000D03*
D10*
X128525000Y-68805000D03*
%TD*%
D12*
%TO.C,C5*%
X136500000Y-61275000D03*
X136500000Y-59725000D03*
%TD*%
D13*
%TO.C,D4*%
X134500000Y-56420000D03*
X134500000Y-55580000D03*
%TD*%
D14*
%TO.C,C2*%
X124950000Y-68805000D03*
X123050000Y-68805000D03*
%TD*%
D15*
%TO.C,C1*%
X126500000Y-68912500D03*
X126500000Y-68412500D03*
%TD*%
D16*
%TO.C,C4*%
X132700000Y-56000000D03*
X132700000Y-57550000D03*
%TD*%
D17*
%TO.C,D1*%
X126287500Y-62500000D03*
X124712500Y-62500000D03*
%TD*%
D18*
%TO.C,U2*%
X125550000Y-73637500D03*
X126500000Y-73637500D03*
X127450000Y-73637500D03*
X127450000Y-71362500D03*
X126500000Y-71362500D03*
X125550000Y-71362500D03*
%TD*%
D19*
%TO.C,R7*%
X136000000Y-57300000D03*
X136000000Y-56105000D03*
%TD*%
D20*
%TO.C,SW1*%
X130700000Y-56500000D03*
X127300000Y-56500000D03*
%TD*%
D21*
%TO.C,R2*%
X124500000Y-78902500D03*
X124500000Y-80097500D03*
%TD*%
%TO.C,R1*%
X127500000Y-78902500D03*
X127500000Y-80097500D03*
%TD*%
D15*
%TO.C,C6*%
X135000000Y-59937500D03*
X135000000Y-59437500D03*
%TD*%
D22*
%TO.C,R3*%
X125695000Y-60500000D03*
X124500000Y-60500000D03*
%TD*%
%TO.C,R8*%
X125695000Y-58500000D03*
X124500000Y-58500000D03*
%TD*%
D14*
%TO.C,C3*%
X124950000Y-66500000D03*
X123050000Y-66500000D03*
%TD*%
D23*
%TO.C,J1*%
X133420000Y-81500000D03*
D24*
X135960000Y-81500000D03*
X138500000Y-81500000D03*
%TD*%
D25*
%TO.C,J4*%
X128890000Y-77395000D03*
X123110000Y-77395000D03*
D26*
X130320000Y-81075000D03*
D27*
X130320000Y-76895000D03*
D26*
X121680000Y-81075000D03*
D27*
X121680000Y-76895000D03*
%TD*%
D23*
%TO.C,J2*%
X133460000Y-77500000D03*
D24*
X136000000Y-77500000D03*
X138540000Y-77500000D03*
%TD*%
M02*
